<mxfile host="app.diagrams.net" modified="2024-01-11T14:33:29.007Z" agent="Mozilla/5.0 (Windows NT 10.0; Win64; x64) AppleWebKit/537.36 (KHTML, like Gecko) Chrome/120.0.0.0 Safari/537.36" etag="LAwDi6L0UsEl3VeJB9Oq" version="22.1.18" type="device">
  <diagram id="C5RBs43oDa-KdzZeNtuy" name="Page-1">
    <mxGraphModel dx="2117" dy="1788" grid="1" gridSize="10" guides="1" tooltips="1" connect="1" arrows="1" fold="1" page="1" pageScale="1" pageWidth="827" pageHeight="1169" math="0" shadow="0">
      <root>
        <mxCell id="WIyWlLk6GJQsqaUBKTNV-0" />
        <mxCell id="WIyWlLk6GJQsqaUBKTNV-1" parent="WIyWlLk6GJQsqaUBKTNV-0" />
        <mxCell id="zkfFHV4jXpPFQw0GAbJ--0" value="Person" style="swimlane;fontStyle=2;align=center;verticalAlign=top;childLayout=stackLayout;horizontal=1;startSize=26;horizontalStack=0;resizeParent=1;resizeLast=0;collapsible=1;marginBottom=0;rounded=0;shadow=0;strokeWidth=1;" parent="WIyWlLk6GJQsqaUBKTNV-1" vertex="1">
          <mxGeometry x="220" y="120" width="160" height="138" as="geometry">
            <mxRectangle x="230" y="140" width="160" height="26" as="alternateBounds" />
          </mxGeometry>
        </mxCell>
        <mxCell id="zkfFHV4jXpPFQw0GAbJ--1" value="Name" style="text;align=left;verticalAlign=top;spacingLeft=4;spacingRight=4;overflow=hidden;rotatable=0;points=[[0,0.5],[1,0.5]];portConstraint=eastwest;" parent="zkfFHV4jXpPFQw0GAbJ--0" vertex="1">
          <mxGeometry y="26" width="160" height="26" as="geometry" />
        </mxCell>
        <mxCell id="zkfFHV4jXpPFQw0GAbJ--2" value="Phone Number" style="text;align=left;verticalAlign=top;spacingLeft=4;spacingRight=4;overflow=hidden;rotatable=0;points=[[0,0.5],[1,0.5]];portConstraint=eastwest;rounded=0;shadow=0;html=0;" parent="zkfFHV4jXpPFQw0GAbJ--0" vertex="1">
          <mxGeometry y="52" width="160" height="26" as="geometry" />
        </mxCell>
        <mxCell id="zkfFHV4jXpPFQw0GAbJ--3" value="Email Address" style="text;align=left;verticalAlign=top;spacingLeft=4;spacingRight=4;overflow=hidden;rotatable=0;points=[[0,0.5],[1,0.5]];portConstraint=eastwest;rounded=0;shadow=0;html=0;" parent="zkfFHV4jXpPFQw0GAbJ--0" vertex="1">
          <mxGeometry y="78" width="160" height="26" as="geometry" />
        </mxCell>
        <mxCell id="zkfFHV4jXpPFQw0GAbJ--4" value="" style="line;html=1;strokeWidth=1;align=left;verticalAlign=middle;spacingTop=-1;spacingLeft=3;spacingRight=3;rotatable=0;labelPosition=right;points=[];portConstraint=eastwest;" parent="zkfFHV4jXpPFQw0GAbJ--0" vertex="1">
          <mxGeometry y="104" width="160" height="8" as="geometry" />
        </mxCell>
        <mxCell id="zkfFHV4jXpPFQw0GAbJ--5" value="Purchase Parking Pass" style="text;align=left;verticalAlign=top;spacingLeft=4;spacingRight=4;overflow=hidden;rotatable=0;points=[[0,0.5],[1,0.5]];portConstraint=eastwest;" parent="zkfFHV4jXpPFQw0GAbJ--0" vertex="1">
          <mxGeometry y="112" width="160" height="26" as="geometry" />
        </mxCell>
        <mxCell id="zkfFHV4jXpPFQw0GAbJ--6" value="Student" style="swimlane;fontStyle=0;align=center;verticalAlign=top;childLayout=stackLayout;horizontal=1;startSize=26;horizontalStack=0;resizeParent=1;resizeLast=0;collapsible=1;marginBottom=0;rounded=0;shadow=0;strokeWidth=1;" parent="WIyWlLk6GJQsqaUBKTNV-1" vertex="1">
          <mxGeometry x="120" y="360" width="160" height="138" as="geometry">
            <mxRectangle x="130" y="380" width="160" height="26" as="alternateBounds" />
          </mxGeometry>
        </mxCell>
        <mxCell id="zkfFHV4jXpPFQw0GAbJ--7" value="Student Number" style="text;align=left;verticalAlign=top;spacingLeft=4;spacingRight=4;overflow=hidden;rotatable=0;points=[[0,0.5],[1,0.5]];portConstraint=eastwest;" parent="zkfFHV4jXpPFQw0GAbJ--6" vertex="1">
          <mxGeometry y="26" width="160" height="26" as="geometry" />
        </mxCell>
        <mxCell id="zkfFHV4jXpPFQw0GAbJ--8" value="Average Mark" style="text;align=left;verticalAlign=top;spacingLeft=4;spacingRight=4;overflow=hidden;rotatable=0;points=[[0,0.5],[1,0.5]];portConstraint=eastwest;rounded=0;shadow=0;html=0;" parent="zkfFHV4jXpPFQw0GAbJ--6" vertex="1">
          <mxGeometry y="52" width="160" height="26" as="geometry" />
        </mxCell>
        <mxCell id="zkfFHV4jXpPFQw0GAbJ--9" value="" style="line;html=1;strokeWidth=1;align=left;verticalAlign=middle;spacingTop=-1;spacingLeft=3;spacingRight=3;rotatable=0;labelPosition=right;points=[];portConstraint=eastwest;" parent="zkfFHV4jXpPFQw0GAbJ--6" vertex="1">
          <mxGeometry y="78" width="160" height="8" as="geometry" />
        </mxCell>
        <mxCell id="zkfFHV4jXpPFQw0GAbJ--10" value="Is Eligible To Enroll" style="text;align=left;verticalAlign=top;spacingLeft=4;spacingRight=4;overflow=hidden;rotatable=0;points=[[0,0.5],[1,0.5]];portConstraint=eastwest;fontStyle=4" parent="zkfFHV4jXpPFQw0GAbJ--6" vertex="1">
          <mxGeometry y="86" width="160" height="26" as="geometry" />
        </mxCell>
        <mxCell id="zkfFHV4jXpPFQw0GAbJ--11" value="Get Seminars Taken" style="text;align=left;verticalAlign=top;spacingLeft=4;spacingRight=4;overflow=hidden;rotatable=0;points=[[0,0.5],[1,0.5]];portConstraint=eastwest;" parent="zkfFHV4jXpPFQw0GAbJ--6" vertex="1">
          <mxGeometry y="112" width="160" height="26" as="geometry" />
        </mxCell>
        <mxCell id="zkfFHV4jXpPFQw0GAbJ--12" value="" style="endArrow=block;endSize=10;endFill=0;shadow=0;strokeWidth=1;rounded=0;edgeStyle=elbowEdgeStyle;elbow=vertical;" parent="WIyWlLk6GJQsqaUBKTNV-1" source="zkfFHV4jXpPFQw0GAbJ--6" target="zkfFHV4jXpPFQw0GAbJ--0" edge="1">
          <mxGeometry width="160" relative="1" as="geometry">
            <mxPoint x="200" y="203" as="sourcePoint" />
            <mxPoint x="200" y="203" as="targetPoint" />
          </mxGeometry>
        </mxCell>
        <mxCell id="zkfFHV4jXpPFQw0GAbJ--13" value="Professor" style="swimlane;fontStyle=0;align=center;verticalAlign=top;childLayout=stackLayout;horizontal=1;startSize=26;horizontalStack=0;resizeParent=1;resizeLast=0;collapsible=1;marginBottom=0;rounded=0;shadow=0;strokeWidth=1;" parent="WIyWlLk6GJQsqaUBKTNV-1" vertex="1">
          <mxGeometry x="330" y="360" width="160" height="70" as="geometry">
            <mxRectangle x="340" y="380" width="170" height="26" as="alternateBounds" />
          </mxGeometry>
        </mxCell>
        <mxCell id="zkfFHV4jXpPFQw0GAbJ--14" value="Salary" style="text;align=left;verticalAlign=top;spacingLeft=4;spacingRight=4;overflow=hidden;rotatable=0;points=[[0,0.5],[1,0.5]];portConstraint=eastwest;" parent="zkfFHV4jXpPFQw0GAbJ--13" vertex="1">
          <mxGeometry y="26" width="160" height="26" as="geometry" />
        </mxCell>
        <mxCell id="zkfFHV4jXpPFQw0GAbJ--15" value="" style="line;html=1;strokeWidth=1;align=left;verticalAlign=middle;spacingTop=-1;spacingLeft=3;spacingRight=3;rotatable=0;labelPosition=right;points=[];portConstraint=eastwest;" parent="zkfFHV4jXpPFQw0GAbJ--13" vertex="1">
          <mxGeometry y="52" width="160" height="8" as="geometry" />
        </mxCell>
        <mxCell id="zkfFHV4jXpPFQw0GAbJ--16" value="" style="endArrow=block;endSize=10;endFill=0;shadow=0;strokeWidth=1;rounded=0;edgeStyle=elbowEdgeStyle;elbow=vertical;" parent="WIyWlLk6GJQsqaUBKTNV-1" source="zkfFHV4jXpPFQw0GAbJ--13" target="zkfFHV4jXpPFQw0GAbJ--0" edge="1">
          <mxGeometry width="160" relative="1" as="geometry">
            <mxPoint x="210" y="373" as="sourcePoint" />
            <mxPoint x="310" y="271" as="targetPoint" />
          </mxGeometry>
        </mxCell>
        <mxCell id="zkfFHV4jXpPFQw0GAbJ--17" value="Address" style="swimlane;fontStyle=0;align=center;verticalAlign=top;childLayout=stackLayout;horizontal=1;startSize=26;horizontalStack=0;resizeParent=1;resizeLast=0;collapsible=1;marginBottom=0;rounded=0;shadow=0;strokeWidth=1;" parent="WIyWlLk6GJQsqaUBKTNV-1" vertex="1">
          <mxGeometry x="508" y="120" width="160" height="216" as="geometry">
            <mxRectangle x="550" y="140" width="160" height="26" as="alternateBounds" />
          </mxGeometry>
        </mxCell>
        <mxCell id="zkfFHV4jXpPFQw0GAbJ--18" value="Street" style="text;align=left;verticalAlign=top;spacingLeft=4;spacingRight=4;overflow=hidden;rotatable=0;points=[[0,0.5],[1,0.5]];portConstraint=eastwest;" parent="zkfFHV4jXpPFQw0GAbJ--17" vertex="1">
          <mxGeometry y="26" width="160" height="26" as="geometry" />
        </mxCell>
        <mxCell id="zkfFHV4jXpPFQw0GAbJ--19" value="City" style="text;align=left;verticalAlign=top;spacingLeft=4;spacingRight=4;overflow=hidden;rotatable=0;points=[[0,0.5],[1,0.5]];portConstraint=eastwest;rounded=0;shadow=0;html=0;" parent="zkfFHV4jXpPFQw0GAbJ--17" vertex="1">
          <mxGeometry y="52" width="160" height="26" as="geometry" />
        </mxCell>
        <mxCell id="zkfFHV4jXpPFQw0GAbJ--20" value="State" style="text;align=left;verticalAlign=top;spacingLeft=4;spacingRight=4;overflow=hidden;rotatable=0;points=[[0,0.5],[1,0.5]];portConstraint=eastwest;rounded=0;shadow=0;html=0;" parent="zkfFHV4jXpPFQw0GAbJ--17" vertex="1">
          <mxGeometry y="78" width="160" height="26" as="geometry" />
        </mxCell>
        <mxCell id="zkfFHV4jXpPFQw0GAbJ--21" value="Postal Code" style="text;align=left;verticalAlign=top;spacingLeft=4;spacingRight=4;overflow=hidden;rotatable=0;points=[[0,0.5],[1,0.5]];portConstraint=eastwest;rounded=0;shadow=0;html=0;" parent="zkfFHV4jXpPFQw0GAbJ--17" vertex="1">
          <mxGeometry y="104" width="160" height="26" as="geometry" />
        </mxCell>
        <mxCell id="zkfFHV4jXpPFQw0GAbJ--22" value="Country" style="text;align=left;verticalAlign=top;spacingLeft=4;spacingRight=4;overflow=hidden;rotatable=0;points=[[0,0.5],[1,0.5]];portConstraint=eastwest;rounded=0;shadow=0;html=0;" parent="zkfFHV4jXpPFQw0GAbJ--17" vertex="1">
          <mxGeometry y="130" width="160" height="26" as="geometry" />
        </mxCell>
        <mxCell id="zkfFHV4jXpPFQw0GAbJ--23" value="" style="line;html=1;strokeWidth=1;align=left;verticalAlign=middle;spacingTop=-1;spacingLeft=3;spacingRight=3;rotatable=0;labelPosition=right;points=[];portConstraint=eastwest;" parent="zkfFHV4jXpPFQw0GAbJ--17" vertex="1">
          <mxGeometry y="156" width="160" height="8" as="geometry" />
        </mxCell>
        <mxCell id="zkfFHV4jXpPFQw0GAbJ--24" value="Validate" style="text;align=left;verticalAlign=top;spacingLeft=4;spacingRight=4;overflow=hidden;rotatable=0;points=[[0,0.5],[1,0.5]];portConstraint=eastwest;" parent="zkfFHV4jXpPFQw0GAbJ--17" vertex="1">
          <mxGeometry y="164" width="160" height="26" as="geometry" />
        </mxCell>
        <mxCell id="zkfFHV4jXpPFQw0GAbJ--25" value="Output As Label" style="text;align=left;verticalAlign=top;spacingLeft=4;spacingRight=4;overflow=hidden;rotatable=0;points=[[0,0.5],[1,0.5]];portConstraint=eastwest;" parent="zkfFHV4jXpPFQw0GAbJ--17" vertex="1">
          <mxGeometry y="190" width="160" height="26" as="geometry" />
        </mxCell>
        <mxCell id="zkfFHV4jXpPFQw0GAbJ--26" value="" style="endArrow=open;shadow=0;strokeWidth=1;rounded=0;endFill=1;edgeStyle=elbowEdgeStyle;elbow=vertical;" parent="WIyWlLk6GJQsqaUBKTNV-1" source="zkfFHV4jXpPFQw0GAbJ--0" target="zkfFHV4jXpPFQw0GAbJ--17" edge="1">
          <mxGeometry x="0.5" y="41" relative="1" as="geometry">
            <mxPoint x="380" y="192" as="sourcePoint" />
            <mxPoint x="540" y="192" as="targetPoint" />
            <mxPoint x="-40" y="32" as="offset" />
          </mxGeometry>
        </mxCell>
        <mxCell id="zkfFHV4jXpPFQw0GAbJ--27" value="0..1" style="resizable=0;align=left;verticalAlign=bottom;labelBackgroundColor=none;fontSize=12;" parent="zkfFHV4jXpPFQw0GAbJ--26" connectable="0" vertex="1">
          <mxGeometry x="-1" relative="1" as="geometry">
            <mxPoint y="4" as="offset" />
          </mxGeometry>
        </mxCell>
        <mxCell id="zkfFHV4jXpPFQw0GAbJ--28" value="1" style="resizable=0;align=right;verticalAlign=bottom;labelBackgroundColor=none;fontSize=12;" parent="zkfFHV4jXpPFQw0GAbJ--26" connectable="0" vertex="1">
          <mxGeometry x="1" relative="1" as="geometry">
            <mxPoint x="-7" y="4" as="offset" />
          </mxGeometry>
        </mxCell>
        <mxCell id="zkfFHV4jXpPFQw0GAbJ--29" value="lives at" style="text;html=1;resizable=0;points=[];;align=center;verticalAlign=middle;labelBackgroundColor=none;rounded=0;shadow=0;strokeWidth=1;fontSize=12;" parent="zkfFHV4jXpPFQw0GAbJ--26" vertex="1" connectable="0">
          <mxGeometry x="0.5" y="49" relative="1" as="geometry">
            <mxPoint x="-38" y="40" as="offset" />
          </mxGeometry>
        </mxCell>
        <UserObject label="" plantUmlData="{&#xa;  &quot;data&quot;: &quot;@startuml\n\nclass Control {\n  - panel: GamePanel\n  + GameFrame()\n}\n\nclass GamePanel {\n  - PANEL_WIDTH: int\n  - PANEL_HEIGHT: int\n  - menu: Menu\n  - mine: Mine\n  - board: Board\n  - flagger: Flagger\n  - smiley: Smiley\n  - undo: Undo\n  - level: Level\n  - timeCounter: TimeCounter\n  - gameState: GameState\n  - life: Life\n  - player: AudioPlayer\n  - gameThread: Thread\n  - dimension: int\n  + GamePanel(frame: GameFrame)\n  + update(): void\n  + paintComponent(g: Graphics): void\n  + startGameThread(): void\n  + run(): void\n}\n\nclass Menu {\n  + getMenuState(): boolean\n  + update(): void\n  + draw(g: Graphics): void\n  + mouseMoved(e: MouseEvent)\n  + mouseClicked(e: MouseEvent)\n}\n\ninterface Layout {\n  + update(): void\n  + draw(g: Graphics): void\n  + mouseClicked(e: MouseEvent)\n  + mouseMoved(e: MouseEvent)\n}\n\nclass Entity {\n  - Layout\n}\n\nclass Mine {\n  &lt;&lt;Entity&gt;&gt;\n}\n\nclass Flagger {\n  &lt;&lt;Entity&gt;&gt;\n}\n\nclass Level {\n  &lt;&lt;Entity&gt;&gt;\n}\n\nclass GameState {\n  &lt;&lt;Entity&gt;&gt;\n}\n\nclass Life {\n  &lt;&lt;Entity&gt;&gt;\n}\n\nclass Board {\n  &lt;&lt;Entity&gt;&gt;\n}\n\nclass Features {\n  - AudioPlayer\n  + playSong(): void\n}\n\nControl --&gt; GamePanel\nGamePanel --&gt; Menu\nGamePanel --&gt; Mine\nGamePanel --&gt; Board\nGamePanel --&gt; Flagger\nGamePanel --&gt; Smiley\nGamePanel --&gt; Undo\nGamePanel --&gt; Level\nGamePanel --&gt; TimeCounter\nGamePanel --&gt; GameState\nGamePanel --&gt; Life\nGamePanel --&gt; AudioPlayer\nGamePanel --&gt; Thread\nGamePanel --&gt; Board\nMenu --&gt; Layout\nEntity &lt;|-- Mine\nEntity &lt;|-- Flagger\nEntity &lt;|-- Level\nEntity &lt;|-- GameState\nEntity &lt;|-- Life\nEntity &lt;|-- Board\nFeatures --&gt; AudioPlayer\n\n@enduml&quot;,&#xa;  &quot;format&quot;: &quot;svg&quot;&#xa;}" id="uzPRRPbreIV7hiIdQNZa-0">
          <mxCell style="shape=image;noLabel=1;verticalAlign=top;aspect=fixed;imageAspect=0;image=data:image/svg+xml,PD94bWwgdmVyc2lvbj0iMS4wIiBlbmNvZGluZz0idXMtYXNjaWkiIHN0YW5kYWxvbmU9Im5vIj8+PHN2ZyB4bWxucz0iaHR0cDovL3d3dy53My5vcmcvMjAwMC9zdmciIHhtbG5zOnhsaW5rPSJodHRwOi8vd3d3LnczLm9yZy8xOTk5L3hsaW5rIiBjb250ZW50U3R5bGVUeXBlPSJ0ZXh0L2NzcyIgaGVpZ2h0PSI4NTBweCIgcHJlc2VydmVBc3BlY3RSYXRpbz0ibm9uZSIgc3R5bGU9IndpZHRoOjE1MTlweDtoZWlnaHQ6ODUwcHg7YmFja2dyb3VuZDojRkZGRkZGOyIgdmVyc2lvbj0iMS4xIiB2aWV3Qm94PSIwIDAgMTUxOSA4NTAiIHdpZHRoPSIxNTE5cHgiIHpvb21BbmRQYW49Im1hZ25pZnkiPjxkZWZzLz48Zz48IS0tY2xhc3MgQ29udHJvbC0tPjxnIGlkPSJlbGVtX0NvbnRyb2wiPjxyZWN0IGNvZGVMaW5lPSIxIiBmaWxsPSIjRjFGMUYxIiBoZWlnaHQ9Ijc3Ljk2ODgiIGlkPSJDb250cm9sIiByeD0iMi41IiByeT0iMi41IiBzdHlsZT0ic3Ryb2tlOiMxODE4MTg7c3Ryb2tlLXdpZHRoOjAuNTsiIHdpZHRoPSIxMzkiIHg9IjUzNSIgeT0iNyIvPjxlbGxpcHNlIGN4PSI1NzYuMSIgY3k9IjIzIiBmaWxsPSIjQUREMUIyIiByeD0iMTEiIHJ5PSIxMSIgc3R5bGU9InN0cm9rZTojMTgxODE4O3N0cm9rZS13aWR0aDoxLjA7Ii8+PHBhdGggZD0iTTU3My43MjUsMjcuMjUgTDU3My43MjUsMjkgTDU3OC42NjI1LDI5IEw1NzguNjYyNSwyNy4yNSBMNTczLjcyNSwyNy4yNSBaIE01NzQuNDEyNSwyNy45Mzc1IFE1NzQuNDEyNSwyNy45Mzc1IDU3NC40MTI1LDE4Ljc1IEw1NzIuNjYyNSwxOC43NSBRNTcyLjY2MjUsMTguNzUgNTcyLjY2MjUsMjcuOTM3NSBMNTc0LjQxMjUsMjcuOTM3NSBaIE01NzcuOTc1LDI3LjkzNzUgTDU3OS43MjUsMjcuOTM3NSBRNTc5LjcyNSwyNy45Mzc1IDU3OS43MjUsMjUuMTI1IEw1NzcuOTc1LDI1LjEyNSBRNTc3Ljk3NSwyNS4xMjUgNTc3Ljk3NSwyNy45Mzc1IFogTTU3Ny45NzUsMTguNzUgUTU3Ny45NzUsMTguNzUgNTc3Ljk3NSwyMS41NjI1IEw1NzkuNzI1LDIxLjU2MjUgUTU3OS43MjUsMjEuNTYyNSA1NzkuNzI1LDE4Ljc1IEw1NzcuOTc1LDE4Ljc1IFogTTU3My43MjUsMTkuNDM3NSBMNTc4LjY2MjUsMTkuNDM3NSBMNTc4LjY2MjUsMTcuNjg3NSBMNTczLjcyNSwxNy42ODc1IEw1NzMuNzI1LDE5LjQzNzUgWiAiIGZpbGw9IiMwMDAwMDAiLz48dGV4dCBmaWxsPSIjMDAwMDAwIiBmb250LWZhbWlseT0ic2Fucy1zZXJpZiIgZm9udC1zaXplPSIxNCIgbGVuZ3RoQWRqdXN0PSJzcGFjaW5nIiB0ZXh0TGVuZ3RoPSI0OSIgeD0iNTk1LjkiIHk9IjI4Ljc0MjIiPkNvbnRyb2w8L3RleHQ+PGxpbmUgc3R5bGU9InN0cm9rZTojMTgxODE4O3N0cm9rZS13aWR0aDowLjU7IiB4MT0iNTM2IiB4Mj0iNjczIiB5MT0iMzkiIHkyPSIzOSIvPjxyZWN0IGZpbGw9Im5vbmUiIGhlaWdodD0iNiIgc3R5bGU9InN0cm9rZTojQzgyOTMwO3N0cm9rZS13aWR0aDoxLjA7IiB3aWR0aD0iNiIgeD0iNTQzIiB5PSI0OC45OTIyIi8+PHRleHQgZmlsbD0iIzAwMDAwMCIgZm9udC1mYW1pbHk9InNhbnMtc2VyaWYiIGZvbnQtc2l6ZT0iMTQiIGxlbmd0aEFkanVzdD0ic3BhY2luZyIgdGV4dExlbmd0aD0iMTEzIiB4PSI1NTUiIHk9IjU2LjIzNDQiPnBhbmVsOiBHYW1lUGFuZWw8L3RleHQ+PGxpbmUgc3R5bGU9InN0cm9rZTojMTgxODE4O3N0cm9rZS13aWR0aDowLjU7IiB4MT0iNTM2IiB4Mj0iNjczIiB5MT0iNjEuOTg0NCIgeTI9IjYxLjk4NDQiLz48ZWxsaXBzZSBjeD0iNTQ2IiBjeT0iNzQuOTc2NiIgZmlsbD0iIzg0QkU4NCIgcng9IjMiIHJ5PSIzIiBzdHlsZT0ic3Ryb2tlOiMwMzgwNDg7c3Ryb2tlLXdpZHRoOjEuMDsiLz48dGV4dCBmaWxsPSIjMDAwMDAwIiBmb250LWZhbWlseT0ic2Fucy1zZXJpZiIgZm9udC1zaXplPSIxNCIgbGVuZ3RoQWRqdXN0PSJzcGFjaW5nIiB0ZXh0TGVuZ3RoPSI4MSIgeD0iNTU1IiB5PSI3OS4yMTg4Ij5HYW1lRnJhbWUoKTwvdGV4dD48L2c+PCEtLWNsYXNzIEdhbWVQYW5lbC0tPjxnIGlkPSJlbGVtX0dhbWVQYW5lbCI+PHJlY3QgY29kZUxpbmU9IjYiIGZpbGw9IiNGMUYxRjEiIGhlaWdodD0iMzQ3LjY4NzUiIGlkPSJHYW1lUGFuZWwiIHJ4PSIyLjUiIHJ5PSIyLjUiIHN0eWxlPSJzdHJva2U6IzE4MTgxODtzdHJva2Utd2lkdGg6MC41OyIgd2lkdGg9IjI2MCIgeD0iNDc0LjUiIHk9IjE0NSIvPjxlbGxpcHNlIGN4PSI1NjguMjUiIGN5PSIxNjEiIGZpbGw9IiNBREQxQjIiIHJ4PSIxMSIgcnk9IjExIiBzdHlsZT0ic3Ryb2tlOiMxODE4MTg7c3Ryb2tlLXdpZHRoOjEuMDsiLz48cGF0aCBkPSJNNTY1Ljg3NSwxNjUuMjUgTDU2NS44NzUsMTY3IEw1NzAuODEyNSwxNjcgTDU3MC44MTI1LDE2NS4yNSBMNTY1Ljg3NSwxNjUuMjUgWiBNNTY2LjU2MjUsMTY1LjkzNzUgUTU2Ni41NjI1LDE2NS45Mzc1IDU2Ni41NjI1LDE1Ni43NSBMNTY0LjgxMjUsMTU2Ljc1IFE1NjQuODEyNSwxNTYuNzUgNTY0LjgxMjUsMTY1LjkzNzUgTDU2Ni41NjI1LDE2NS45Mzc1IFogTTU3MC4xMjUsMTY1LjkzNzUgTDU3MS44NzUsMTY1LjkzNzUgUTU3MS44NzUsMTY1LjkzNzUgNTcxLjg3NSwxNjMuMTI1IEw1NzAuMTI1LDE2My4xMjUgUTU3MC4xMjUsMTYzLjEyNSA1NzAuMTI1LDE2NS45Mzc1IFogTTU3MC4xMjUsMTU2Ljc1IFE1NzAuMTI1LDE1Ni43NSA1NzAuMTI1LDE1OS41NjI1IEw1NzEuODc1LDE1OS41NjI1IFE1NzEuODc1LDE1OS41NjI1IDU3MS44NzUsMTU2Ljc1IEw1NzAuMTI1LDE1Ni43NSBaIE01NjUuODc1LDE1Ny40Mzc1IEw1NzAuODEyNSwxNTcuNDM3NSBMNTcwLjgxMjUsMTU1LjY4NzUgTDU2NS44NzUsMTU1LjY4NzUgTDU2NS44NzUsMTU3LjQzNzUgWiAiIGZpbGw9IiMwMDAwMDAiLz48dGV4dCBmaWxsPSIjMDAwMDAwIiBmb250LWZhbWlseT0ic2Fucy1zZXJpZiIgZm9udC1zaXplPSIxNCIgbGVuZ3RoQWRqdXN0PSJzcGFjaW5nIiB0ZXh0TGVuZ3RoPSI2NCIgeD0iNTg4Ljc1IiB5PSIxNjYuNzQyMiI+R2FtZVBhbmVsPC90ZXh0PjxsaW5lIHN0eWxlPSJzdHJva2U6IzE4MTgxODtzdHJva2Utd2lkdGg6MC41OyIgeDE9IjQ3NS41IiB4Mj0iNzMzLjUiIHkxPSIxNzciIHkyPSIxNzciLz48cmVjdCBmaWxsPSJub25lIiBoZWlnaHQ9IjYiIHN0eWxlPSJzdHJva2U6I0M4MjkzMDtzdHJva2Utd2lkdGg6MS4wOyIgd2lkdGg9IjYiIHg9IjQ4Mi41IiB5PSIxODYuOTkyMiIvPjx0ZXh0IGZpbGw9IiMwMDAwMDAiIGZvbnQtZmFtaWx5PSJzYW5zLXNlcmlmIiBmb250LXNpemU9IjE0IiBsZW5ndGhBZGp1c3Q9InNwYWNpbmciIHRleHRMZW5ndGg9IjExMiIgeD0iNDk0LjUiIHk9IjE5NC4yMzQ0Ij5QQU5FTF9XSURUSDogaW50PC90ZXh0PjxyZWN0IGZpbGw9Im5vbmUiIGhlaWdodD0iNiIgc3R5bGU9InN0cm9rZTojQzgyOTMwO3N0cm9rZS13aWR0aDoxLjA7IiB3aWR0aD0iNiIgeD0iNDgyLjUiIHk9IjIwMS45NzY2Ii8+PHRleHQgZmlsbD0iIzAwMDAwMCIgZm9udC1mYW1pbHk9InNhbnMtc2VyaWYiIGZvbnQtc2l6ZT0iMTQiIGxlbmd0aEFkanVzdD0ic3BhY2luZyIgdGV4dExlbmd0aD0iMTE5IiB4PSI0OTQuNSIgeT0iMjA5LjIxODgiPlBBTkVMX0hFSUdIVDogaW50PC90ZXh0PjxyZWN0IGZpbGw9Im5vbmUiIGhlaWdodD0iNiIgc3R5bGU9InN0cm9rZTojQzgyOTMwO3N0cm9rZS13aWR0aDoxLjA7IiB3aWR0aD0iNiIgeD0iNDgyLjUiIHk9IjIxNi45NjA5Ii8+PHRleHQgZmlsbD0iIzAwMDAwMCIgZm9udC1mYW1pbHk9InNhbnMtc2VyaWYiIGZvbnQtc2l6ZT0iMTQiIGxlbmd0aEFkanVzdD0ic3BhY2luZyIgdGV4dExlbmd0aD0iNzEiIHg9IjQ5NC41IiB5PSIyMjQuMjAzMSI+bWVudTogTWVudTwvdGV4dD48cmVjdCBmaWxsPSJub25lIiBoZWlnaHQ9IjYiIHN0eWxlPSJzdHJva2U6I0M4MjkzMDtzdHJva2Utd2lkdGg6MS4wOyIgd2lkdGg9IjYiIHg9IjQ4Mi41IiB5PSIyMzEuOTQ1MyIvPjx0ZXh0IGZpbGw9IiMwMDAwMDAiIGZvbnQtZmFtaWx5PSJzYW5zLXNlcmlmIiBmb250LXNpemU9IjE0IiBsZW5ndGhBZGp1c3Q9InNwYWNpbmciIHRleHRMZW5ndGg9IjcxIiB4PSI0OTQuNSIgeT0iMjM5LjE4NzUiPm1pbmU6IE1pbmU8L3RleHQ+PHJlY3QgZmlsbD0ibm9uZSIgaGVpZ2h0PSI2IiBzdHlsZT0ic3Ryb2tlOiNDODI5MzA7c3Ryb2tlLXdpZHRoOjEuMDsiIHdpZHRoPSI2IiB4PSI0ODIuNSIgeT0iMjQ2LjkyOTciLz48dGV4dCBmaWxsPSIjMDAwMDAwIiBmb250LWZhbWlseT0ic2Fucy1zZXJpZiIgZm9udC1zaXplPSIxNCIgbGVuZ3RoQWRqdXN0PSJzcGFjaW5nIiB0ZXh0TGVuZ3RoPSI4NCIgeD0iNDk0LjUiIHk9IjI1NC4xNzE5Ij5ib2FyZDogQm9hcmQ8L3RleHQ+PHJlY3QgZmlsbD0ibm9uZSIgaGVpZ2h0PSI2IiBzdHlsZT0ic3Ryb2tlOiNDODI5MzA7c3Ryb2tlLXdpZHRoOjEuMDsiIHdpZHRoPSI2IiB4PSI0ODIuNSIgeT0iMjYxLjkxNDEiLz48dGV4dCBmaWxsPSIjMDAwMDAwIiBmb250LWZhbWlseT0ic2Fucy1zZXJpZiIgZm9udC1zaXplPSIxNCIgbGVuZ3RoQWRqdXN0PSJzcGFjaW5nIiB0ZXh0TGVuZ3RoPSIxMTIiIHg9IjQ5NC41IiB5PSIyNjkuMTU2MyI+ZmxhZ2dlcjogRmxhZ2dlcjwvdGV4dD48cmVjdCBmaWxsPSJub25lIiBoZWlnaHQ9IjYiIHN0eWxlPSJzdHJva2U6I0M4MjkzMDtzdHJva2Utd2lkdGg6MS4wOyIgd2lkdGg9IjYiIHg9IjQ4Mi41IiB5PSIyNzYuODk4NCIvPjx0ZXh0IGZpbGw9IiMwMDAwMDAiIGZvbnQtZmFtaWx5PSJzYW5zLXNlcmlmIiBmb250LXNpemU9IjE0IiBsZW5ndGhBZGp1c3Q9InNwYWNpbmciIHRleHRMZW5ndGg9IjEwMCIgeD0iNDk0LjUiIHk9IjI4NC4xNDA2Ij5zbWlsZXk6IFNtaWxleTwvdGV4dD48cmVjdCBmaWxsPSJub25lIiBoZWlnaHQ9IjYiIHN0eWxlPSJzdHJva2U6I0M4MjkzMDtzdHJva2Utd2lkdGg6MS4wOyIgd2lkdGg9IjYiIHg9IjQ4Mi41IiB5PSIyOTEuODgyOCIvPjx0ZXh0IGZpbGw9IiMwMDAwMDAiIGZvbnQtZmFtaWx5PSJzYW5zLXNlcmlmIiBmb250LXNpemU9IjE0IiBsZW5ndGhBZGp1c3Q9InNwYWNpbmciIHRleHRMZW5ndGg9IjcwIiB4PSI0OTQuNSIgeT0iMjk5LjEyNSI+dW5kbzogVW5kbzwvdGV4dD48cmVjdCBmaWxsPSJub25lIiBoZWlnaHQ9IjYiIHN0eWxlPSJzdHJva2U6I0M4MjkzMDtzdHJva2Utd2lkdGg6MS4wOyIgd2lkdGg9IjYiIHg9IjQ4Mi41IiB5PSIzMDYuODY3MiIvPjx0ZXh0IGZpbGw9IiMwMDAwMDAiIGZvbnQtZmFtaWx5PSJzYW5zLXNlcmlmIiBmb250LXNpemU9IjE0IiBsZW5ndGhBZGp1c3Q9InNwYWNpbmciIHRleHRMZW5ndGg9Ijg0IiB4PSI0OTQuNSIgeT0iMzE0LjEwOTQiPmxldmVsOiBMZXZlbDwvdGV4dD48cmVjdCBmaWxsPSJub25lIiBoZWlnaHQ9IjYiIHN0eWxlPSJzdHJva2U6I0M4MjkzMDtzdHJva2Utd2lkdGg6MS4wOyIgd2lkdGg9IjYiIHg9IjQ4Mi41IiB5PSIzMjEuODUxNiIvPjx0ZXh0IGZpbGw9IiMwMDAwMDAiIGZvbnQtZmFtaWx5PSJzYW5zLXNlcmlmIiBmb250LXNpemU9IjE0IiBsZW5ndGhBZGp1c3Q9InNwYWNpbmciIHRleHRMZW5ndGg9IjE3MCIgeD0iNDk0LjUiIHk9IjMyOS4wOTM4Ij50aW1lQ291bnRlcjogVGltZUNvdW50ZXI8L3RleHQ+PHJlY3QgZmlsbD0ibm9uZSIgaGVpZ2h0PSI2IiBzdHlsZT0ic3Ryb2tlOiNDODI5MzA7c3Ryb2tlLXdpZHRoOjEuMDsiIHdpZHRoPSI2IiB4PSI0ODIuNSIgeT0iMzM2LjgzNTkiLz48dGV4dCBmaWxsPSIjMDAwMDAwIiBmb250LWZhbWlseT0ic2Fucy1zZXJpZiIgZm9udC1zaXplPSIxNCIgbGVuZ3RoQWRqdXN0PSJzcGFjaW5nIiB0ZXh0TGVuZ3RoPSIxNDIiIHg9IjQ5NC41IiB5PSIzNDQuMDc4MSI+Z2FtZVN0YXRlOiBHYW1lU3RhdGU8L3RleHQ+PHJlY3QgZmlsbD0ibm9uZSIgaGVpZ2h0PSI2IiBzdHlsZT0ic3Ryb2tlOiNDODI5MzA7c3Ryb2tlLXdpZHRoOjEuMDsiIHdpZHRoPSI2IiB4PSI0ODIuNSIgeT0iMzUxLjgyMDMiLz48dGV4dCBmaWxsPSIjMDAwMDAwIiBmb250LWZhbWlseT0ic2Fucy1zZXJpZiIgZm9udC1zaXplPSIxNCIgbGVuZ3RoQWRqdXN0PSJzcGFjaW5nIiB0ZXh0TGVuZ3RoPSI3MCIgeD0iNDk0LjUiIHk9IjM1OS4wNjI1Ij5saWZlOiBMaWZlPC90ZXh0PjxyZWN0IGZpbGw9Im5vbmUiIGhlaWdodD0iNiIgc3R5bGU9InN0cm9rZTojQzgyOTMwO3N0cm9rZS13aWR0aDoxLjA7IiB3aWR0aD0iNiIgeD0iNDgyLjUiIHk9IjM2Ni44MDQ3Ii8+PHRleHQgZmlsbD0iIzAwMDAwMCIgZm9udC1mYW1pbHk9InNhbnMtc2VyaWYiIGZvbnQtc2l6ZT0iMTQiIGxlbmd0aEFkanVzdD0ic3BhY2luZyIgdGV4dExlbmd0aD0iMTMzIiB4PSI0OTQuNSIgeT0iMzc0LjA0NjkiPnBsYXllcjogQXVkaW9QbGF5ZXI8L3RleHQ+PHJlY3QgZmlsbD0ibm9uZSIgaGVpZ2h0PSI2IiBzdHlsZT0ic3Ryb2tlOiNDODI5MzA7c3Ryb2tlLXdpZHRoOjEuMDsiIHdpZHRoPSI2IiB4PSI0ODIuNSIgeT0iMzgxLjc4OTEiLz48dGV4dCBmaWxsPSIjMDAwMDAwIiBmb250LWZhbWlseT0ic2Fucy1zZXJpZiIgZm9udC1zaXplPSIxNCIgbGVuZ3RoQWRqdXN0PSJzcGFjaW5nIiB0ZXh0TGVuZ3RoPSIxMjciIHg9IjQ5NC41IiB5PSIzODkuMDMxMyI+Z2FtZVRocmVhZDogVGhyZWFkPC90ZXh0PjxyZWN0IGZpbGw9Im5vbmUiIGhlaWdodD0iNiIgc3R5bGU9InN0cm9rZTojQzgyOTMwO3N0cm9rZS13aWR0aDoxLjA7IiB3aWR0aD0iNiIgeD0iNDgyLjUiIHk9IjM5Ni43NzM0Ii8+PHRleHQgZmlsbD0iIzAwMDAwMCIgZm9udC1mYW1pbHk9InNhbnMtc2VyaWYiIGZvbnQtc2l6ZT0iMTQiIGxlbmd0aEFkanVzdD0ic3BhY2luZyIgdGV4dExlbmd0aD0iOTkiIHg9IjQ5NC41IiB5PSI0MDQuMDE1NiI+ZGltZW5zaW9uOiBpbnQ8L3RleHQ+PGxpbmUgc3R5bGU9InN0cm9rZTojMTgxODE4O3N0cm9rZS13aWR0aDowLjU7IiB4MT0iNDc1LjUiIHgyPSI3MzMuNSIgeTE9IjQwOS43NjU2IiB5Mj0iNDA5Ljc2NTYiLz48ZWxsaXBzZSBjeD0iNDg1LjUiIGN5PSI0MjIuNzU3OCIgZmlsbD0iIzg0QkU4NCIgcng9IjMiIHJ5PSIzIiBzdHlsZT0ic3Ryb2tlOiMwMzgwNDg7c3Ryb2tlLXdpZHRoOjEuMDsiLz48dGV4dCBmaWxsPSIjMDAwMDAwIiBmb250LWZhbWlseT0ic2Fucy1zZXJpZiIgZm9udC1zaXplPSIxNCIgbGVuZ3RoQWRqdXN0PSJzcGFjaW5nIiB0ZXh0TGVuZ3RoPSIxOTUiIHg9IjQ5NC41IiB5PSI0MjciPkdhbWVQYW5lbChmcmFtZTogR2FtZUZyYW1lKTwvdGV4dD48ZWxsaXBzZSBjeD0iNDg1LjUiIGN5PSI0MzcuNzQyMiIgZmlsbD0iIzg0QkU4NCIgcng9IjMiIHJ5PSIzIiBzdHlsZT0ic3Ryb2tlOiMwMzgwNDg7c3Ryb2tlLXdpZHRoOjEuMDsiLz48dGV4dCBmaWxsPSIjMDAwMDAwIiBmb250LWZhbWlseT0ic2Fucy1zZXJpZiIgZm9udC1zaXplPSIxNCIgbGVuZ3RoQWRqdXN0PSJzcGFjaW5nIiB0ZXh0TGVuZ3RoPSIxMDAiIHg9IjQ5NC41IiB5PSI0NDEuOTg0NCI+dXBkYXRlKCk6IHZvaWQ8L3RleHQ+PGVsbGlwc2UgY3g9IjQ4NS41IiBjeT0iNDUyLjcyNjYiIGZpbGw9IiM4NEJFODQiIHJ4PSIzIiByeT0iMyIgc3R5bGU9InN0cm9rZTojMDM4MDQ4O3N0cm9rZS13aWR0aDoxLjA7Ii8+PHRleHQgZmlsbD0iIzAwMDAwMCIgZm9udC1mYW1pbHk9InNhbnMtc2VyaWYiIGZvbnQtc2l6ZT0iMTQiIGxlbmd0aEFkanVzdD0ic3BhY2luZyIgdGV4dExlbmd0aD0iMjM0IiB4PSI0OTQuNSIgeT0iNDU2Ljk2ODgiPnBhaW50Q29tcG9uZW50KGc6IEdyYXBoaWNzKTogdm9pZDwvdGV4dD48ZWxsaXBzZSBjeD0iNDg1LjUiIGN5PSI0NjcuNzEwOSIgZmlsbD0iIzg0QkU4NCIgcng9IjMiIHJ5PSIzIiBzdHlsZT0ic3Ryb2tlOiMwMzgwNDg7c3Ryb2tlLXdpZHRoOjEuMDsiLz48dGV4dCBmaWxsPSIjMDAwMDAwIiBmb250LWZhbWlseT0ic2Fucy1zZXJpZiIgZm9udC1zaXplPSIxNCIgbGVuZ3RoQWRqdXN0PSJzcGFjaW5nIiB0ZXh0TGVuZ3RoPSIxNjQiIHg9IjQ5NC41IiB5PSI0NzEuOTUzMSI+c3RhcnRHYW1lVGhyZWFkKCk6IHZvaWQ8L3RleHQ+PGVsbGlwc2UgY3g9IjQ4NS41IiBjeT0iNDgyLjY5NTMiIGZpbGw9IiM4NEJFODQiIHJ4PSIzIiByeT0iMyIgc3R5bGU9InN0cm9rZTojMDM4MDQ4O3N0cm9rZS13aWR0aDoxLjA7Ii8+PHRleHQgZmlsbD0iIzAwMDAwMCIgZm9udC1mYW1pbHk9InNhbnMtc2VyaWYiIGZvbnQtc2l6ZT0iMTQiIGxlbmd0aEFkanVzdD0ic3BhY2luZyIgdGV4dExlbmd0aD0iNzkiIHg9IjQ5NC41IiB5PSI0ODYuOTM3NSI+cnVuKCk6IHZvaWQ8L3RleHQ+PC9nPjwhLS1jbGFzcyBNZW51LS0+PGcgaWQ9ImVsZW1fTWVudSI+PHJlY3QgY29kZUxpbmU9IjI5IiBmaWxsPSIjRjFGMUYxIiBoZWlnaHQ9IjEyMi45MjE5IiBpZD0iTWVudSIgcng9IjIuNSIgcnk9IjIuNSIgc3R5bGU9InN0cm9rZTojMTgxODE4O3N0cm9rZS13aWR0aDowLjU7IiB3aWR0aD0iMjE4IiB4PSIxMTM0LjUiIHk9IjU1MyIvPjxlbGxpcHNlIGN4PSIxMjI1LjI1IiBjeT0iNTY5IiBmaWxsPSIjQUREMUIyIiByeD0iMTEiIHJ5PSIxMSIgc3R5bGU9InN0cm9rZTojMTgxODE4O3N0cm9rZS13aWR0aDoxLjA7Ii8+PHBhdGggZD0iTTEyMjIuODc1LDU3My4yNSBMMTIyMi44NzUsNTc1IEwxMjI3LjgxMjUsNTc1IEwxMjI3LjgxMjUsNTczLjI1IEwxMjIyLjg3NSw1NzMuMjUgWiBNMTIyMy41NjI1LDU3My45Mzc1IFExMjIzLjU2MjUsNTczLjkzNzUgMTIyMy41NjI1LDU2NC43NSBMMTIyMS44MTI1LDU2NC43NSBRMTIyMS44MTI1LDU2NC43NSAxMjIxLjgxMjUsNTczLjkzNzUgTDEyMjMuNTYyNSw1NzMuOTM3NSBaIE0xMjI3LjEyNSw1NzMuOTM3NSBMMTIyOC44NzUsNTczLjkzNzUgUTEyMjguODc1LDU3My45Mzc1IDEyMjguODc1LDU3MS4xMjUgTDEyMjcuMTI1LDU3MS4xMjUgUTEyMjcuMTI1LDU3MS4xMjUgMTIyNy4xMjUsNTczLjkzNzUgWiBNMTIyNy4xMjUsNTY0Ljc1IFExMjI3LjEyNSw1NjQuNzUgMTIyNy4xMjUsNTY3LjU2MjUgTDEyMjguODc1LDU2Ny41NjI1IFExMjI4Ljg3NSw1NjcuNTYyNSAxMjI4Ljg3NSw1NjQuNzUgTDEyMjcuMTI1LDU2NC43NSBaIE0xMjIyLjg3NSw1NjUuNDM3NSBMMTIyNy44MTI1LDU2NS40Mzc1IEwxMjI3LjgxMjUsNTYzLjY4NzUgTDEyMjIuODc1LDU2My42ODc1IEwxMjIyLjg3NSw1NjUuNDM3NSBaICIgZmlsbD0iIzAwMDAwMCIvPjx0ZXh0IGZpbGw9IiMwMDAwMDAiIGZvbnQtZmFtaWx5PSJzYW5zLXNlcmlmIiBmb250LXNpemU9IjE0IiBsZW5ndGhBZGp1c3Q9InNwYWNpbmciIHRleHRMZW5ndGg9IjI4IiB4PSIxMjQ1Ljc1IiB5PSI1NzQuNzQyMiI+TWVudTwvdGV4dD48bGluZSBzdHlsZT0ic3Ryb2tlOiMxODE4MTg7c3Ryb2tlLXdpZHRoOjAuNTsiIHgxPSIxMTM1LjUiIHgyPSIxMzUxLjUiIHkxPSI1ODUiIHkyPSI1ODUiLz48bGluZSBzdHlsZT0ic3Ryb2tlOiMxODE4MTg7c3Ryb2tlLXdpZHRoOjAuNTsiIHgxPSIxMTM1LjUiIHgyPSIxMzUxLjUiIHkxPSI1OTMiIHkyPSI1OTMiLz48ZWxsaXBzZSBjeD0iMTE0NS41IiBjeT0iNjA1Ljk5MjIiIGZpbGw9IiM4NEJFODQiIHJ4PSIzIiByeT0iMyIgc3R5bGU9InN0cm9rZTojMDM4MDQ4O3N0cm9rZS13aWR0aDoxLjA7Ii8+PHRleHQgZmlsbD0iIzAwMDAwMCIgZm9udC1mYW1pbHk9InNhbnMtc2VyaWYiIGZvbnQtc2l6ZT0iMTQiIGxlbmd0aEFkanVzdD0ic3BhY2luZyIgdGV4dExlbmd0aD0iMTYzIiB4PSIxMTU0LjUiIHk9IjYxMC4yMzQ0Ij5nZXRNZW51U3RhdGUoKTogYm9vbGVhbjwvdGV4dD48ZWxsaXBzZSBjeD0iMTE0NS41IiBjeT0iNjIwLjk3NjYiIGZpbGw9IiM4NEJFODQiIHJ4PSIzIiByeT0iMyIgc3R5bGU9InN0cm9rZTojMDM4MDQ4O3N0cm9rZS13aWR0aDoxLjA7Ii8+PHRleHQgZmlsbD0iIzAwMDAwMCIgZm9udC1mYW1pbHk9InNhbnMtc2VyaWYiIGZvbnQtc2l6ZT0iMTQiIGxlbmd0aEFkanVzdD0ic3BhY2luZyIgdGV4dExlbmd0aD0iMTAwIiB4PSIxMTU0LjUiIHk9IjYyNS4yMTg4Ij51cGRhdGUoKTogdm9pZDwvdGV4dD48ZWxsaXBzZSBjeD0iMTE0NS41IiBjeT0iNjM1Ljk2MDkiIGZpbGw9IiM4NEJFODQiIHJ4PSIzIiByeT0iMyIgc3R5bGU9InN0cm9rZTojMDM4MDQ4O3N0cm9rZS13aWR0aDoxLjA7Ii8+PHRleHQgZmlsbD0iIzAwMDAwMCIgZm9udC1mYW1pbHk9InNhbnMtc2VyaWYiIGZvbnQtc2l6ZT0iMTQiIGxlbmd0aEFkanVzdD0ic3BhY2luZyIgdGV4dExlbmd0aD0iMTY0IiB4PSIxMTU0LjUiIHk9IjY0MC4yMDMxIj5kcmF3KGc6IEdyYXBoaWNzKTogdm9pZDwvdGV4dD48ZWxsaXBzZSBjeD0iMTE0NS41IiBjeT0iNjUwLjk0NTMiIGZpbGw9IiM4NEJFODQiIHJ4PSIzIiByeT0iMyIgc3R5bGU9InN0cm9rZTojMDM4MDQ4O3N0cm9rZS13aWR0aDoxLjA7Ii8+PHRleHQgZmlsbD0iIzAwMDAwMCIgZm9udC1mYW1pbHk9InNhbnMtc2VyaWYiIGZvbnQtc2l6ZT0iMTQiIGxlbmd0aEFkanVzdD0ic3BhY2luZyIgdGV4dExlbmd0aD0iMTc4IiB4PSIxMTU0LjUiIHk9IjY1NS4xODc1Ij5tb3VzZU1vdmVkKGU6IE1vdXNlRXZlbnQpPC90ZXh0PjxlbGxpcHNlIGN4PSIxMTQ1LjUiIGN5PSI2NjUuOTI5NyIgZmlsbD0iIzg0QkU4NCIgcng9IjMiIHJ5PSIzIiBzdHlsZT0ic3Ryb2tlOiMwMzgwNDg7c3Ryb2tlLXdpZHRoOjEuMDsiLz48dGV4dCBmaWxsPSIjMDAwMDAwIiBmb250LWZhbWlseT0ic2Fucy1zZXJpZiIgZm9udC1zaXplPSIxNCIgbGVuZ3RoQWRqdXN0PSJzcGFjaW5nIiB0ZXh0TGVuZ3RoPSIxOTIiIHg9IjExNTQuNSIgeT0iNjcwLjE3MTkiPm1vdXNlQ2xpY2tlZChlOiBNb3VzZUV2ZW50KTwvdGV4dD48L2c+PCEtLWNsYXNzIExheW91dC0tPjxnIGlkPSJlbGVtX0xheW91dCI+PHJlY3QgY29kZUxpbmU9IjM3IiBmaWxsPSIjRjFGMUYxIiBoZWlnaHQ9IjEwNy45Mzc1IiBpZD0iTGF5b3V0IiByeD0iMi41IiByeT0iMi41IiBzdHlsZT0ic3Ryb2tlOiMxODE4MTg7c3Ryb2tlLXdpZHRoOjAuNTsiIHdpZHRoPSIyMTgiIHg9IjExMzQuNSIgeT0iNzM2Ii8+PGVsbGlwc2UgY3g9IjEyMTguMjUiIGN5PSI3NTIiIGZpbGw9IiNCNEE3RTUiIHJ4PSIxMSIgcnk9IjExIiBzdHlsZT0ic3Ryb2tlOiMxODE4MTg7c3Ryb2tlLXdpZHRoOjEuMDsiLz48cGF0aCBkPSJNMTIyMS4zNzUsNzU4IEwxMjIxLjM3NSw3NTYuMjUgTDEyMTkuMjUsNzU2LjI1IFExMjE5LjI1LDc1Ni4yNSAxMjE5LjI1LDc0OC40Mzc1IEwxMjIxLjM3NSw3NDguNDM3NSBMMTIyMS4zNzUsNzQ2LjY4NzUgTDEyMTUuMzc1LDc0Ni42ODc1IEwxMjE1LjM3NSw3NDguNDM3NSBMMTIxNy41LDc0OC40Mzc1IFExMjE3LjUsNzQ4LjQzNzUgMTIxNy41LDc1Ni4yNSBMMTIxNS4zNzUsNzU2LjI1IEwxMjE1LjM3NSw3NTggTDEyMjEuMzc1LDc1OCBaICIgZmlsbD0iIzAwMDAwMCIvPjx0ZXh0IGZpbGw9IiMwMDAwMDAiIGZvbnQtZmFtaWx5PSJzYW5zLXNlcmlmIiBmb250LXNpemU9IjE0IiBmb250LXN0eWxlPSJpdGFsaWMiIGxlbmd0aEFkanVzdD0ic3BhY2luZyIgdGV4dExlbmd0aD0iNDIiIHg9IjEyMzguNzUiIHk9Ijc1Ny43NDIyIj5MYXlvdXQ8L3RleHQ+PGxpbmUgc3R5bGU9InN0cm9rZTojMTgxODE4O3N0cm9rZS13aWR0aDowLjU7IiB4MT0iMTEzNS41IiB4Mj0iMTM1MS41IiB5MT0iNzY4IiB5Mj0iNzY4Ii8+PGxpbmUgc3R5bGU9InN0cm9rZTojMTgxODE4O3N0cm9rZS13aWR0aDowLjU7IiB4MT0iMTEzNS41IiB4Mj0iMTM1MS41IiB5MT0iNzc2IiB5Mj0iNzc2Ii8+PGVsbGlwc2UgY3g9IjExNDUuNSIgY3k9Ijc4OC45OTIyIiBmaWxsPSIjODRCRTg0IiByeD0iMyIgcnk9IjMiIHN0eWxlPSJzdHJva2U6IzAzODA0ODtzdHJva2Utd2lkdGg6MS4wOyIvPjx0ZXh0IGZpbGw9IiMwMDAwMDAiIGZvbnQtZmFtaWx5PSJzYW5zLXNlcmlmIiBmb250LXNpemU9IjE0IiBsZW5ndGhBZGp1c3Q9InNwYWNpbmciIHRleHRMZW5ndGg9IjEwMCIgeD0iMTE1NC41IiB5PSI3OTMuMjM0NCI+dXBkYXRlKCk6IHZvaWQ8L3RleHQ+PGVsbGlwc2UgY3g9IjExNDUuNSIgY3k9IjgwMy45NzY2IiBmaWxsPSIjODRCRTg0IiByeD0iMyIgcnk9IjMiIHN0eWxlPSJzdHJva2U6IzAzODA0ODtzdHJva2Utd2lkdGg6MS4wOyIvPjx0ZXh0IGZpbGw9IiMwMDAwMDAiIGZvbnQtZmFtaWx5PSJzYW5zLXNlcmlmIiBmb250LXNpemU9IjE0IiBsZW5ndGhBZGp1c3Q9InNwYWNpbmciIHRleHRMZW5ndGg9IjE2NCIgeD0iMTE1NC41IiB5PSI4MDguMjE4OCI+ZHJhdyhnOiBHcmFwaGljcyk6IHZvaWQ8L3RleHQ+PGVsbGlwc2UgY3g9IjExNDUuNSIgY3k9IjgxOC45NjA5IiBmaWxsPSIjODRCRTg0IiByeD0iMyIgcnk9IjMiIHN0eWxlPSJzdHJva2U6IzAzODA0ODtzdHJva2Utd2lkdGg6MS4wOyIvPjx0ZXh0IGZpbGw9IiMwMDAwMDAiIGZvbnQtZmFtaWx5PSJzYW5zLXNlcmlmIiBmb250LXNpemU9IjE0IiBsZW5ndGhBZGp1c3Q9InNwYWNpbmciIHRleHRMZW5ndGg9IjE5MiIgeD0iMTE1NC41IiB5PSI4MjMuMjAzMSI+bW91c2VDbGlja2VkKGU6IE1vdXNlRXZlbnQpPC90ZXh0PjxlbGxpcHNlIGN4PSIxMTQ1LjUiIGN5PSI4MzMuOTQ1MyIgZmlsbD0iIzg0QkU4NCIgcng9IjMiIHJ5PSIzIiBzdHlsZT0ic3Ryb2tlOiMwMzgwNDg7c3Ryb2tlLXdpZHRoOjEuMDsiLz48dGV4dCBmaWxsPSIjMDAwMDAwIiBmb250LWZhbWlseT0ic2Fucy1zZXJpZiIgZm9udC1zaXplPSIxNCIgbGVuZ3RoQWRqdXN0PSJzcGFjaW5nIiB0ZXh0TGVuZ3RoPSIxNzgiIHg9IjExNTQuNSIgeT0iODM4LjE4NzUiPm1vdXNlTW92ZWQoZTogTW91c2VFdmVudCk8L3RleHQ+PC9nPjwhLS1jbGFzcyBFbnRpdHktLT48ZyBpZD0iZWxlbV9FbnRpdHkiPjxyZWN0IGNvZGVMaW5lPSI0NCIgZmlsbD0iI0YxRjFGMSIgaGVpZ2h0PSI2Mi45ODQ0IiBpZD0iRW50aXR5IiByeD0iMi41IiByeT0iMi41IiBzdHlsZT0ic3Ryb2tlOiMxODE4MTg7c3Ryb2tlLXdpZHRoOjAuNTsiIHdpZHRoPSI3NCIgeD0iMjk4LjUiIHk9IjI4Ny41Ii8+PGVsbGlwc2UgY3g9IjMxMy41IiBjeT0iMzAzLjUiIGZpbGw9IiNBREQxQjIiIHJ4PSIxMSIgcnk9IjExIiBzdHlsZT0ic3Ryb2tlOiMxODE4MTg7c3Ryb2tlLXdpZHRoOjEuMDsiLz48cGF0aCBkPSJNMzExLjEyNSwzMDcuNzUgTDMxMS4xMjUsMzA5LjUgTDMxNi4wNjI1LDMwOS41IEwzMTYuMDYyNSwzMDcuNzUgTDMxMS4xMjUsMzA3Ljc1IFogTTMxMS44MTI1LDMwOC40Mzc1IFEzMTEuODEyNSwzMDguNDM3NSAzMTEuODEyNSwyOTkuMjUgTDMxMC4wNjI1LDI5OS4yNSBRMzEwLjA2MjUsMjk5LjI1IDMxMC4wNjI1LDMwOC40Mzc1IEwzMTEuODEyNSwzMDguNDM3NSBaIE0zMTUuMzc1LDMwOC40Mzc1IEwzMTcuMTI1LDMwOC40Mzc1IFEzMTcuMTI1LDMwOC40Mzc1IDMxNy4xMjUsMzA1LjYyNSBMMzE1LjM3NSwzMDUuNjI1IFEzMTUuMzc1LDMwNS42MjUgMzE1LjM3NSwzMDguNDM3NSBaIE0zMTUuMzc1LDI5OS4yNSBRMzE1LjM3NSwyOTkuMjUgMzE1LjM3NSwzMDIuMDYyNSBMMzE3LjEyNSwzMDIuMDYyNSBRMzE3LjEyNSwzMDIuMDYyNSAzMTcuMTI1LDI5OS4yNSBMMzE1LjM3NSwyOTkuMjUgWiBNMzExLjEyNSwyOTkuOTM3NSBMMzE2LjA2MjUsMjk5LjkzNzUgTDMxNi4wNjI1LDI5OC4xODc1IEwzMTEuMTI1LDI5OC4xODc1IEwzMTEuMTI1LDI5OS45Mzc1IFogIiBmaWxsPSIjMDAwMDAwIi8+PHRleHQgZmlsbD0iIzAwMDAwMCIgZm9udC1mYW1pbHk9InNhbnMtc2VyaWYiIGZvbnQtc2l6ZT0iMTQiIGxlbmd0aEFkanVzdD0ic3BhY2luZyIgdGV4dExlbmd0aD0iNDIiIHg9IjMyNy41IiB5PSIzMDkuMjQyMiI+RW50aXR5PC90ZXh0PjxsaW5lIHN0eWxlPSJzdHJva2U6IzE4MTgxODtzdHJva2Utd2lkdGg6MC41OyIgeDE9IjI5OS41IiB4Mj0iMzcxLjUiIHkxPSIzMTkuNSIgeTI9IjMxOS41Ii8+PHJlY3QgZmlsbD0ibm9uZSIgaGVpZ2h0PSI2IiBzdHlsZT0ic3Ryb2tlOiNDODI5MzA7c3Ryb2tlLXdpZHRoOjEuMDsiIHdpZHRoPSI2IiB4PSIzMDYuNSIgeT0iMzI5LjQ5MjIiLz48dGV4dCBmaWxsPSIjMDAwMDAwIiBmb250LWZhbWlseT0ic2Fucy1zZXJpZiIgZm9udC1zaXplPSIxNCIgbGVuZ3RoQWRqdXN0PSJzcGFjaW5nIiB0ZXh0TGVuZ3RoPSI0MiIgeD0iMzE4LjUiIHk9IjMzNi43MzQ0Ij5MYXlvdXQ8L3RleHQ+PGxpbmUgc3R5bGU9InN0cm9rZTojMTgxODE4O3N0cm9rZS13aWR0aDowLjU7IiB4MT0iMjk5LjUiIHgyPSIzNzEuNSIgeTE9IjM0Mi40ODQ0IiB5Mj0iMzQyLjQ4NDQiLz48L2c+PCEtLWNsYXNzIE1pbmUtLT48ZyBpZD0iZWxlbV9NaW5lIj48cmVjdCBjb2RlTGluZT0iNDgiIGZpbGw9IiNGMUYxRjEiIGhlaWdodD0iNjIuOTg0NCIgaWQ9Ik1pbmUiIHJ4PSIyLjUiIHJ5PSIyLjUiIHN0eWxlPSJzdHJva2U6IzE4MTgxODtzdHJva2Utd2lkdGg6MC41OyIgd2lkdGg9IjcwIiB4PSI0NjQuNSIgeT0iNTgzIi8+PGVsbGlwc2UgY3g9IjQ4NCIgY3k9IjU5OSIgZmlsbD0iI0FERDFCMiIgcng9IjExIiByeT0iMTEiIHN0eWxlPSJzdHJva2U6IzE4MTgxODtzdHJva2Utd2lkdGg6MS4wOyIvPjxwYXRoIGQ9Ik00ODEuNjI1LDYwMy4yNSBMNDgxLjYyNSw2MDUgTDQ4Ni41NjI1LDYwNSBMNDg2LjU2MjUsNjAzLjI1IEw0ODEuNjI1LDYwMy4yNSBaIE00ODIuMzEyNSw2MDMuOTM3NSBRNDgyLjMxMjUsNjAzLjkzNzUgNDgyLjMxMjUsNTk0Ljc1IEw0ODAuNTYyNSw1OTQuNzUgUTQ4MC41NjI1LDU5NC43NSA0ODAuNTYyNSw2MDMuOTM3NSBMNDgyLjMxMjUsNjAzLjkzNzUgWiBNNDg1Ljg3NSw2MDMuOTM3NSBMNDg3LjYyNSw2MDMuOTM3NSBRNDg3LjYyNSw2MDMuOTM3NSA0ODcuNjI1LDYwMS4xMjUgTDQ4NS44NzUsNjAxLjEyNSBRNDg1Ljg3NSw2MDEuMTI1IDQ4NS44NzUsNjAzLjkzNzUgWiBNNDg1Ljg3NSw1OTQuNzUgUTQ4NS44NzUsNTk0Ljc1IDQ4NS44NzUsNTk3LjU2MjUgTDQ4Ny42MjUsNTk3LjU2MjUgUTQ4Ny42MjUsNTk3LjU2MjUgNDg3LjYyNSw1OTQuNzUgTDQ4NS44NzUsNTk0Ljc1IFogTTQ4MS42MjUsNTk1LjQzNzUgTDQ4Ni41NjI1LDU5NS40Mzc1IEw0ODYuNTYyNSw1OTMuNjg3NSBMNDgxLjYyNSw1OTMuNjg3NSBMNDgxLjYyNSw1OTUuNDM3NSBaICIgZmlsbD0iIzAwMDAwMCIvPjx0ZXh0IGZpbGw9IiMwMDAwMDAiIGZvbnQtZmFtaWx5PSJzYW5zLXNlcmlmIiBmb250LXNpemU9IjE0IiBsZW5ndGhBZGp1c3Q9InNwYWNpbmciIHRleHRMZW5ndGg9IjI4IiB4PSI0OTkiIHk9IjYwNC43NDIyIj5NaW5lPC90ZXh0PjxsaW5lIHN0eWxlPSJzdHJva2U6IzE4MTgxODtzdHJva2Utd2lkdGg6MC41OyIgeDE9IjQ2NS41IiB4Mj0iNTMzLjUiIHkxPSI2MTUiIHkyPSI2MTUiLz48dGV4dCBmaWxsPSIjMDAwMDAwIiBmb250LWZhbWlseT0ic2Fucy1zZXJpZiIgZm9udC1zaXplPSIxNCIgbGVuZ3RoQWRqdXN0PSJzcGFjaW5nIiB0ZXh0TGVuZ3RoPSI1OCIgeD0iNDcwLjUiIHk9IjYzMi4yMzQ0Ij4mIzE3MTtFbnRpdHkmIzE4Nzs8L3RleHQ+PGxpbmUgc3R5bGU9InN0cm9rZTojMTgxODE4O3N0cm9rZS13aWR0aDowLjU7IiB4MT0iNDY1LjUiIHgyPSI1MzMuNSIgeTE9IjYzNy45ODQ0IiB5Mj0iNjM3Ljk4NDQiLz48L2c+PCEtLWNsYXNzIEZsYWdnZXItLT48ZyBpZD0iZWxlbV9GbGFnZ2VyIj48cmVjdCBjb2RlTGluZT0iNTIiIGZpbGw9IiNGMUYxRjEiIGhlaWdodD0iNjIuOTg0NCIgaWQ9IkZsYWdnZXIiIHJ4PSIyLjUiIHJ5PSIyLjUiIHN0eWxlPSJzdHJva2U6IzE4MTgxODtzdHJva2Utd2lkdGg6MC41OyIgd2lkdGg9IjgxIiB4PSI3IiB5PSI1ODMiLz48ZWxsaXBzZSBjeD0iMjIiIGN5PSI1OTkiIGZpbGw9IiNBREQxQjIiIHJ4PSIxMSIgcnk9IjExIiBzdHlsZT0ic3Ryb2tlOiMxODE4MTg7c3Ryb2tlLXdpZHRoOjEuMDsiLz48cGF0aCBkPSJNMTkuNjI1LDYwMy4yNSBMMTkuNjI1LDYwNSBMMjQuNTYyNSw2MDUgTDI0LjU2MjUsNjAzLjI1IEwxOS42MjUsNjAzLjI1IFogTTIwLjMxMjUsNjAzLjkzNzUgUTIwLjMxMjUsNjAzLjkzNzUgMjAuMzEyNSw1OTQuNzUgTDE4LjU2MjUsNTk0Ljc1IFExOC41NjI1LDU5NC43NSAxOC41NjI1LDYwMy45Mzc1IEwyMC4zMTI1LDYwMy45Mzc1IFogTTIzLjg3NSw2MDMuOTM3NSBMMjUuNjI1LDYwMy45Mzc1IFEyNS42MjUsNjAzLjkzNzUgMjUuNjI1LDYwMS4xMjUgTDIzLjg3NSw2MDEuMTI1IFEyMy44NzUsNjAxLjEyNSAyMy44NzUsNjAzLjkzNzUgWiBNMjMuODc1LDU5NC43NSBRMjMuODc1LDU5NC43NSAyMy44NzUsNTk3LjU2MjUgTDI1LjYyNSw1OTcuNTYyNSBRMjUuNjI1LDU5Ny41NjI1IDI1LjYyNSw1OTQuNzUgTDIzLjg3NSw1OTQuNzUgWiBNMTkuNjI1LDU5NS40Mzc1IEwyNC41NjI1LDU5NS40Mzc1IEwyNC41NjI1LDU5My42ODc1IEwxOS42MjUsNTkzLjY4NzUgTDE5LjYyNSw1OTUuNDM3NSBaICIgZmlsbD0iIzAwMDAwMCIvPjx0ZXh0IGZpbGw9IiMwMDAwMDAiIGZvbnQtZmFtaWx5PSJzYW5zLXNlcmlmIiBmb250LXNpemU9IjE0IiBsZW5ndGhBZGp1c3Q9InNwYWNpbmciIHRleHRMZW5ndGg9IjQ5IiB4PSIzNiIgeT0iNjA0Ljc0MjIiPkZsYWdnZXI8L3RleHQ+PGxpbmUgc3R5bGU9InN0cm9rZTojMTgxODE4O3N0cm9rZS13aWR0aDowLjU7IiB4MT0iOCIgeDI9Ijg3IiB5MT0iNjE1IiB5Mj0iNjE1Ii8+PHRleHQgZmlsbD0iIzAwMDAwMCIgZm9udC1mYW1pbHk9InNhbnMtc2VyaWYiIGZvbnQtc2l6ZT0iMTQiIGxlbmd0aEFkanVzdD0ic3BhY2luZyIgdGV4dExlbmd0aD0iNTgiIHg9IjEzIiB5PSI2MzIuMjM0NCI+JiMxNzE7RW50aXR5JiMxODc7PC90ZXh0PjxsaW5lIHN0eWxlPSJzdHJva2U6IzE4MTgxODtzdHJva2Utd2lkdGg6MC41OyIgeDE9IjgiIHgyPSI4NyIgeTE9IjYzNy45ODQ0IiB5Mj0iNjM3Ljk4NDQiLz48L2c+PCEtLWNsYXNzIExldmVsLS0+PGcgaWQ9ImVsZW1fTGV2ZWwiPjxyZWN0IGNvZGVMaW5lPSI1NiIgZmlsbD0iI0YxRjFGMSIgaGVpZ2h0PSI2Mi45ODQ0IiBpZD0iTGV2ZWwiIHJ4PSIyLjUiIHJ5PSIyLjUiIHN0eWxlPSJzdHJva2U6IzE4MTgxODtzdHJva2Utd2lkdGg6MC41OyIgd2lkdGg9IjcwIiB4PSIxMjMuNSIgeT0iNTgzIi8+PGVsbGlwc2UgY3g9IjEzOS44NSIgY3k9IjU5OSIgZmlsbD0iI0FERDFCMiIgcng9IjExIiByeT0iMTEiIHN0eWxlPSJzdHJva2U6IzE4MTgxODtzdHJva2Utd2lkdGg6MS4wOyIvPjxwYXRoIGQ9Ik0xMzcuNDc1LDYwMy4yNSBMMTM3LjQ3NSw2MDUgTDE0Mi40MTI1LDYwNSBMMTQyLjQxMjUsNjAzLjI1IEwxMzcuNDc1LDYwMy4yNSBaIE0xMzguMTYyNSw2MDMuOTM3NSBRMTM4LjE2MjUsNjAzLjkzNzUgMTM4LjE2MjUsNTk0Ljc1IEwxMzYuNDEyNSw1OTQuNzUgUTEzNi40MTI1LDU5NC43NSAxMzYuNDEyNSw2MDMuOTM3NSBMMTM4LjE2MjUsNjAzLjkzNzUgWiBNMTQxLjcyNSw2MDMuOTM3NSBMMTQzLjQ3NSw2MDMuOTM3NSBRMTQzLjQ3NSw2MDMuOTM3NSAxNDMuNDc1LDYwMS4xMjUgTDE0MS43MjUsNjAxLjEyNSBRMTQxLjcyNSw2MDEuMTI1IDE0MS43MjUsNjAzLjkzNzUgWiBNMTQxLjcyNSw1OTQuNzUgUTE0MS43MjUsNTk0Ljc1IDE0MS43MjUsNTk3LjU2MjUgTDE0My40NzUsNTk3LjU2MjUgUTE0My40NzUsNTk3LjU2MjUgMTQzLjQ3NSw1OTQuNzUgTDE0MS43MjUsNTk0Ljc1IFogTTEzNy40NzUsNTk1LjQzNzUgTDE0Mi40MTI1LDU5NS40Mzc1IEwxNDIuNDEyNSw1OTMuNjg3NSBMMTM3LjQ3NSw1OTMuNjg3NSBMMTM3LjQ3NSw1OTUuNDM3NSBaICIgZmlsbD0iIzAwMDAwMCIvPjx0ZXh0IGZpbGw9IiMwMDAwMDAiIGZvbnQtZmFtaWx5PSJzYW5zLXNlcmlmIiBmb250LXNpemU9IjE0IiBsZW5ndGhBZGp1c3Q9InNwYWNpbmciIHRleHRMZW5ndGg9IjM1IiB4PSIxNTQuMTUiIHk9IjYwNC43NDIyIj5MZXZlbDwvdGV4dD48bGluZSBzdHlsZT0ic3Ryb2tlOiMxODE4MTg7c3Ryb2tlLXdpZHRoOjAuNTsiIHgxPSIxMjQuNSIgeDI9IjE5Mi41IiB5MT0iNjE1IiB5Mj0iNjE1Ii8+PHRleHQgZmlsbD0iIzAwMDAwMCIgZm9udC1mYW1pbHk9InNhbnMtc2VyaWYiIGZvbnQtc2l6ZT0iMTQiIGxlbmd0aEFkanVzdD0ic3BhY2luZyIgdGV4dExlbmd0aD0iNTgiIHg9IjEyOS41IiB5PSI2MzIuMjM0NCI+JiMxNzE7RW50aXR5JiMxODc7PC90ZXh0PjxsaW5lIHN0eWxlPSJzdHJva2U6IzE4MTgxODtzdHJva2Utd2lkdGg6MC41OyIgeDE9IjEyNC41IiB4Mj0iMTkyLjUiIHkxPSI2MzcuOTg0NCIgeTI9IjYzNy45ODQ0Ii8+PC9nPjwhLS1jbGFzcyBHYW1lU3RhdGUtLT48ZyBpZD0iZWxlbV9HYW1lU3RhdGUiPjxyZWN0IGNvZGVMaW5lPSI2MCIgZmlsbD0iI0YxRjFGMSIgaGVpZ2h0PSI2Mi45ODQ0IiBpZD0iR2FtZVN0YXRlIiByeD0iMi41IiByeT0iMi41IiBzdHlsZT0ic3Ryb2tlOiMxODE4MTg7c3Ryb2tlLXdpZHRoOjAuNTsiIHdpZHRoPSI5NiIgeD0iMjI4LjUiIHk9IjU4MyIvPjxlbGxpcHNlIGN4PSIyNDMuNSIgY3k9IjU5OSIgZmlsbD0iI0FERDFCMiIgcng9IjExIiByeT0iMTEiIHN0eWxlPSJzdHJva2U6IzE4MTgxODtzdHJva2Utd2lkdGg6MS4wOyIvPjxwYXRoIGQ9Ik0yNDEuMTI1LDYwMy4yNSBMMjQxLjEyNSw2MDUgTDI0Ni4wNjI1LDYwNSBMMjQ2LjA2MjUsNjAzLjI1IEwyNDEuMTI1LDYwMy4yNSBaIE0yNDEuODEyNSw2MDMuOTM3NSBRMjQxLjgxMjUsNjAzLjkzNzUgMjQxLjgxMjUsNTk0Ljc1IEwyNDAuMDYyNSw1OTQuNzUgUTI0MC4wNjI1LDU5NC43NSAyNDAuMDYyNSw2MDMuOTM3NSBMMjQxLjgxMjUsNjAzLjkzNzUgWiBNMjQ1LjM3NSw2MDMuOTM3NSBMMjQ3LjEyNSw2MDMuOTM3NSBRMjQ3LjEyNSw2MDMuOTM3NSAyNDcuMTI1LDYwMS4xMjUgTDI0NS4zNzUsNjAxLjEyNSBRMjQ1LjM3NSw2MDEuMTI1IDI0NS4zNzUsNjAzLjkzNzUgWiBNMjQ1LjM3NSw1OTQuNzUgUTI0NS4zNzUsNTk0Ljc1IDI0NS4zNzUsNTk3LjU2MjUgTDI0Ny4xMjUsNTk3LjU2MjUgUTI0Ny4xMjUsNTk3LjU2MjUgMjQ3LjEyNSw1OTQuNzUgTDI0NS4zNzUsNTk0Ljc1IFogTTI0MS4xMjUsNTk1LjQzNzUgTDI0Ni4wNjI1LDU5NS40Mzc1IEwyNDYuMDYyNSw1OTMuNjg3NSBMMjQxLjEyNSw1OTMuNjg3NSBMMjQxLjEyNSw1OTUuNDM3NSBaICIgZmlsbD0iIzAwMDAwMCIvPjx0ZXh0IGZpbGw9IiMwMDAwMDAiIGZvbnQtZmFtaWx5PSJzYW5zLXNlcmlmIiBmb250LXNpemU9IjE0IiBsZW5ndGhBZGp1c3Q9InNwYWNpbmciIHRleHRMZW5ndGg9IjY0IiB4PSIyNTcuNSIgeT0iNjA0Ljc0MjIiPkdhbWVTdGF0ZTwvdGV4dD48bGluZSBzdHlsZT0ic3Ryb2tlOiMxODE4MTg7c3Ryb2tlLXdpZHRoOjAuNTsiIHgxPSIyMjkuNSIgeDI9IjMyMy41IiB5MT0iNjE1IiB5Mj0iNjE1Ii8+PHRleHQgZmlsbD0iIzAwMDAwMCIgZm9udC1mYW1pbHk9InNhbnMtc2VyaWYiIGZvbnQtc2l6ZT0iMTQiIGxlbmd0aEFkanVzdD0ic3BhY2luZyIgdGV4dExlbmd0aD0iNTgiIHg9IjIzNC41IiB5PSI2MzIuMjM0NCI+JiMxNzE7RW50aXR5JiMxODc7PC90ZXh0PjxsaW5lIHN0eWxlPSJzdHJva2U6IzE4MTgxODtzdHJva2Utd2lkdGg6MC41OyIgeDE9IjIyOS41IiB4Mj0iMzIzLjUiIHkxPSI2MzcuOTg0NCIgeTI9IjYzNy45ODQ0Ii8+PC9nPjwhLS1jbGFzcyBMaWZlLS0+PGcgaWQ9ImVsZW1fTGlmZSI+PHJlY3QgY29kZUxpbmU9IjY0IiBmaWxsPSIjRjFGMUYxIiBoZWlnaHQ9IjYyLjk4NDQiIGlkPSJMaWZlIiByeD0iMi41IiByeT0iMi41IiBzdHlsZT0ic3Ryb2tlOiMxODE4MTg7c3Ryb2tlLXdpZHRoOjAuNTsiIHdpZHRoPSI3MCIgeD0iMzU5LjUiIHk9IjU4MyIvPjxlbGxpcHNlIGN4PSIzNzkiIGN5PSI1OTkiIGZpbGw9IiNBREQxQjIiIHJ4PSIxMSIgcnk9IjExIiBzdHlsZT0ic3Ryb2tlOiMxODE4MTg7c3Ryb2tlLXdpZHRoOjEuMDsiLz48cGF0aCBkPSJNMzc2LjYyNSw2MDMuMjUgTDM3Ni42MjUsNjA1IEwzODEuNTYyNSw2MDUgTDM4MS41NjI1LDYwMy4yNSBMMzc2LjYyNSw2MDMuMjUgWiBNMzc3LjMxMjUsNjAzLjkzNzUgUTM3Ny4zMTI1LDYwMy45Mzc1IDM3Ny4zMTI1LDU5NC43NSBMMzc1LjU2MjUsNTk0Ljc1IFEzNzUuNTYyNSw1OTQuNzUgMzc1LjU2MjUsNjAzLjkzNzUgTDM3Ny4zMTI1LDYwMy45Mzc1IFogTTM4MC44NzUsNjAzLjkzNzUgTDM4Mi42MjUsNjAzLjkzNzUgUTM4Mi42MjUsNjAzLjkzNzUgMzgyLjYyNSw2MDEuMTI1IEwzODAuODc1LDYwMS4xMjUgUTM4MC44NzUsNjAxLjEyNSAzODAuODc1LDYwMy45Mzc1IFogTTM4MC44NzUsNTk0Ljc1IFEzODAuODc1LDU5NC43NSAzODAuODc1LDU5Ny41NjI1IEwzODIuNjI1LDU5Ny41NjI1IFEzODIuNjI1LDU5Ny41NjI1IDM4Mi42MjUsNTk0Ljc1IEwzODAuODc1LDU5NC43NSBaIE0zNzYuNjI1LDU5NS40Mzc1IEwzODEuNTYyNSw1OTUuNDM3NSBMMzgxLjU2MjUsNTkzLjY4NzUgTDM3Ni42MjUsNTkzLjY4NzUgTDM3Ni42MjUsNTk1LjQzNzUgWiAiIGZpbGw9IiMwMDAwMDAiLz48dGV4dCBmaWxsPSIjMDAwMDAwIiBmb250LWZhbWlseT0ic2Fucy1zZXJpZiIgZm9udC1zaXplPSIxNCIgbGVuZ3RoQWRqdXN0PSJzcGFjaW5nIiB0ZXh0TGVuZ3RoPSIyOCIgeD0iMzk0IiB5PSI2MDQuNzQyMiI+TGlmZTwvdGV4dD48bGluZSBzdHlsZT0ic3Ryb2tlOiMxODE4MTg7c3Ryb2tlLXdpZHRoOjAuNTsiIHgxPSIzNjAuNSIgeDI9IjQyOC41IiB5MT0iNjE1IiB5Mj0iNjE1Ii8+PHRleHQgZmlsbD0iIzAwMDAwMCIgZm9udC1mYW1pbHk9InNhbnMtc2VyaWYiIGZvbnQtc2l6ZT0iMTQiIGxlbmd0aEFkanVzdD0ic3BhY2luZyIgdGV4dExlbmd0aD0iNTgiIHg9IjM2NS41IiB5PSI2MzIuMjM0NCI+JiMxNzE7RW50aXR5JiMxODc7PC90ZXh0PjxsaW5lIHN0eWxlPSJzdHJva2U6IzE4MTgxODtzdHJva2Utd2lkdGg6MC41OyIgeDE9IjM2MC41IiB4Mj0iNDI4LjUiIHkxPSI2MzcuOTg0NCIgeTI9IjYzNy45ODQ0Ii8+PC9nPjwhLS1jbGFzcyBCb2FyZC0tPjxnIGlkPSJlbGVtX0JvYXJkIj48cmVjdCBjb2RlTGluZT0iNjgiIGZpbGw9IiNGMUYxRjEiIGhlaWdodD0iNjIuOTg0NCIgaWQ9IkJvYXJkIiByeD0iMi41IiByeT0iMi41IiBzdHlsZT0ic3Ryb2tlOiMxODE4MTg7c3Ryb2tlLXdpZHRoOjAuNTsiIHdpZHRoPSI3MCIgeD0iNTY5LjUiIHk9IjU4MyIvPjxlbGxpcHNlIGN4PSI1ODUuODUiIGN5PSI1OTkiIGZpbGw9IiNBREQxQjIiIHJ4PSIxMSIgcnk9IjExIiBzdHlsZT0ic3Ryb2tlOiMxODE4MTg7c3Ryb2tlLXdpZHRoOjEuMDsiLz48cGF0aCBkPSJNNTgzLjQ3NSw2MDMuMjUgTDU4My40NzUsNjA1IEw1ODguNDEyNSw2MDUgTDU4OC40MTI1LDYwMy4yNSBMNTgzLjQ3NSw2MDMuMjUgWiBNNTg0LjE2MjUsNjAzLjkzNzUgUTU4NC4xNjI1LDYwMy45Mzc1IDU4NC4xNjI1LDU5NC43NSBMNTgyLjQxMjUsNTk0Ljc1IFE1ODIuNDEyNSw1OTQuNzUgNTgyLjQxMjUsNjAzLjkzNzUgTDU4NC4xNjI1LDYwMy45Mzc1IFogTTU4Ny43MjUsNjAzLjkzNzUgTDU4OS40NzUsNjAzLjkzNzUgUTU4OS40NzUsNjAzLjkzNzUgNTg5LjQ3NSw2MDEuMTI1IEw1ODcuNzI1LDYwMS4xMjUgUTU4Ny43MjUsNjAxLjEyNSA1ODcuNzI1LDYwMy45Mzc1IFogTTU4Ny43MjUsNTk0Ljc1IFE1ODcuNzI1LDU5NC43NSA1ODcuNzI1LDU5Ny41NjI1IEw1ODkuNDc1LDU5Ny41NjI1IFE1ODkuNDc1LDU5Ny41NjI1IDU4OS40NzUsNTk0Ljc1IEw1ODcuNzI1LDU5NC43NSBaIE01ODMuNDc1LDU5NS40Mzc1IEw1ODguNDEyNSw1OTUuNDM3NSBMNTg4LjQxMjUsNTkzLjY4NzUgTDU4My40NzUsNTkzLjY4NzUgTDU4My40NzUsNTk1LjQzNzUgWiAiIGZpbGw9IiMwMDAwMDAiLz48dGV4dCBmaWxsPSIjMDAwMDAwIiBmb250LWZhbWlseT0ic2Fucy1zZXJpZiIgZm9udC1zaXplPSIxNCIgbGVuZ3RoQWRqdXN0PSJzcGFjaW5nIiB0ZXh0TGVuZ3RoPSIzNSIgeD0iNjAwLjE1IiB5PSI2MDQuNzQyMiI+Qm9hcmQ8L3RleHQ+PGxpbmUgc3R5bGU9InN0cm9rZTojMTgxODE4O3N0cm9rZS13aWR0aDowLjU7IiB4MT0iNTcwLjUiIHgyPSI2MzguNSIgeTE9IjYxNSIgeTI9IjYxNSIvPjx0ZXh0IGZpbGw9IiMwMDAwMDAiIGZvbnQtZmFtaWx5PSJzYW5zLXNlcmlmIiBmb250LXNpemU9IjE0IiBsZW5ndGhBZGp1c3Q9InNwYWNpbmciIHRleHRMZW5ndGg9IjU4IiB4PSI1NzUuNSIgeT0iNjMyLjIzNDQiPiYjMTcxO0VudGl0eSYjMTg3OzwvdGV4dD48bGluZSBzdHlsZT0ic3Ryb2tlOiMxODE4MTg7c3Ryb2tlLXdpZHRoOjAuNTsiIHgxPSI1NzAuNSIgeDI9IjYzOC41IiB5MT0iNjM3Ljk4NDQiIHkyPSI2MzcuOTg0NCIvPjwvZz48IS0tY2xhc3MgRmVhdHVyZXMtLT48ZyBpZD0iZWxlbV9GZWF0dXJlcyI+PHJlY3QgY29kZUxpbmU9IjcyIiBmaWxsPSIjRjFGMUYxIiBoZWlnaHQ9Ijc3Ljk2ODgiIGlkPSJGZWF0dXJlcyIgcng9IjIuNSIgcnk9IjIuNSIgc3R5bGU9InN0cm9rZTojMTgxODE4O3N0cm9rZS13aWR0aDowLjU7IiB3aWR0aD0iMTQwIiB4PSIxMzcyLjUiIHk9IjI4MCIvPjxlbGxpcHNlIGN4PSIxNDEwLjkiIGN5PSIyOTYiIGZpbGw9IiNBREQxQjIiIHJ4PSIxMSIgcnk9IjExIiBzdHlsZT0ic3Ryb2tlOiMxODE4MTg7c3Ryb2tlLXdpZHRoOjEuMDsiLz48cGF0aCBkPSJNMTQwOC41MjUsMzAwLjI1IEwxNDA4LjUyNSwzMDIgTDE0MTMuNDYyNSwzMDIgTDE0MTMuNDYyNSwzMDAuMjUgTDE0MDguNTI1LDMwMC4yNSBaIE0xNDA5LjIxMjUsMzAwLjkzNzUgUTE0MDkuMjEyNSwzMDAuOTM3NSAxNDA5LjIxMjUsMjkxLjc1IEwxNDA3LjQ2MjUsMjkxLjc1IFExNDA3LjQ2MjUsMjkxLjc1IDE0MDcuNDYyNSwzMDAuOTM3NSBMMTQwOS4yMTI1LDMwMC45Mzc1IFogTTE0MTIuNzc1LDMwMC45Mzc1IEwxNDE0LjUyNSwzMDAuOTM3NSBRMTQxNC41MjUsMzAwLjkzNzUgMTQxNC41MjUsMjk4LjEyNSBMMTQxMi43NzUsMjk4LjEyNSBRMTQxMi43NzUsMjk4LjEyNSAxNDEyLjc3NSwzMDAuOTM3NSBaIE0xNDEyLjc3NSwyOTEuNzUgUTE0MTIuNzc1LDI5MS43NSAxNDEyLjc3NSwyOTQuNTYyNSBMMTQxNC41MjUsMjk0LjU2MjUgUTE0MTQuNTI1LDI5NC41NjI1IDE0MTQuNTI1LDI5MS43NSBMMTQxMi43NzUsMjkxLjc1IFogTTE0MDguNTI1LDI5Mi40Mzc1IEwxNDEzLjQ2MjUsMjkyLjQzNzUgTDE0MTMuNDYyNSwyOTAuNjg3NSBMMTQwOC41MjUsMjkwLjY4NzUgTDE0MDguNTI1LDI5Mi40Mzc1IFogIiBmaWxsPSIjMDAwMDAwIi8+PHRleHQgZmlsbD0iIzAwMDAwMCIgZm9udC1mYW1pbHk9InNhbnMtc2VyaWYiIGZvbnQtc2l6ZT0iMTQiIGxlbmd0aEFkanVzdD0ic3BhY2luZyIgdGV4dExlbmd0aD0iNTYiIHg9IjE0MzAuMSIgeT0iMzAxLjc0MjIiPkZlYXR1cmVzPC90ZXh0PjxsaW5lIHN0eWxlPSJzdHJva2U6IzE4MTgxODtzdHJva2Utd2lkdGg6MC41OyIgeDE9IjEzNzMuNSIgeDI9IjE1MTEuNSIgeTE9IjMxMiIgeTI9IjMxMiIvPjxyZWN0IGZpbGw9Im5vbmUiIGhlaWdodD0iNiIgc3R5bGU9InN0cm9rZTojQzgyOTMwO3N0cm9rZS13aWR0aDoxLjA7IiB3aWR0aD0iNiIgeD0iMTM4MC41IiB5PSIzMjEuOTkyMiIvPjx0ZXh0IGZpbGw9IiMwMDAwMDAiIGZvbnQtZmFtaWx5PSJzYW5zLXNlcmlmIiBmb250LXNpemU9IjE0IiBsZW5ndGhBZGp1c3Q9InNwYWNpbmciIHRleHRMZW5ndGg9Ijc3IiB4PSIxMzkyLjUiIHk9IjMyOS4yMzQ0Ij5BdWRpb1BsYXllcjwvdGV4dD48bGluZSBzdHlsZT0ic3Ryb2tlOiMxODE4MTg7c3Ryb2tlLXdpZHRoOjAuNTsiIHgxPSIxMzczLjUiIHgyPSIxNTExLjUiIHkxPSIzMzQuOTg0NCIgeTI9IjMzNC45ODQ0Ii8+PGVsbGlwc2UgY3g9IjEzODMuNSIgY3k9IjM0Ny45NzY2IiBmaWxsPSIjODRCRTg0IiByeD0iMyIgcnk9IjMiIHN0eWxlPSJzdHJva2U6IzAzODA0ODtzdHJva2Utd2lkdGg6MS4wOyIvPjx0ZXh0IGZpbGw9IiMwMDAwMDAiIGZvbnQtZmFtaWx5PSJzYW5zLXNlcmlmIiBmb250LXNpemU9IjE0IiBsZW5ndGhBZGp1c3Q9InNwYWNpbmciIHRleHRMZW5ndGg9IjExNCIgeD0iMTM5Mi41IiB5PSIzNTIuMjE4OCI+cGxheVNvbmcoKTogdm9pZDwvdGV4dD48L2c+PCEtLWNsYXNzIFNtaWxleS0tPjxnIGlkPSJlbGVtX1NtaWxleSI+PHJlY3QgZmlsbD0iI0YxRjFGMSIgaGVpZ2h0PSI0OCIgaWQ9IlNtaWxleSIgcng9IjIuNSIgcnk9IjIuNSIgc3R5bGU9InN0cm9rZTojMTgxODE4O3N0cm9rZS13aWR0aDowLjU7IiB3aWR0aD0iNzUiIHg9IjY3NSIgeT0iNTkwLjUiLz48ZWxsaXBzZSBjeD0iNjkwIiBjeT0iNjA2LjUiIGZpbGw9IiNBREQxQjIiIHJ4PSIxMSIgcnk9IjExIiBzdHlsZT0ic3Ryb2tlOiMxODE4MTg7c3Ryb2tlLXdpZHRoOjEuMDsiLz48cGF0aCBkPSJNNjg3LjYyNSw2MTAuNzUgTDY4Ny42MjUsNjEyLjUgTDY5Mi41NjI1LDYxMi41IEw2OTIuNTYyNSw2MTAuNzUgTDY4Ny42MjUsNjEwLjc1IFogTTY4OC4zMTI1LDYxMS40Mzc1IFE2ODguMzEyNSw2MTEuNDM3NSA2ODguMzEyNSw2MDIuMjUgTDY4Ni41NjI1LDYwMi4yNSBRNjg2LjU2MjUsNjAyLjI1IDY4Ni41NjI1LDYxMS40Mzc1IEw2ODguMzEyNSw2MTEuNDM3NSBaIE02OTEuODc1LDYxMS40Mzc1IEw2OTMuNjI1LDYxMS40Mzc1IFE2OTMuNjI1LDYxMS40Mzc1IDY5My42MjUsNjA4LjYyNSBMNjkxLjg3NSw2MDguNjI1IFE2OTEuODc1LDYwOC42MjUgNjkxLjg3NSw2MTEuNDM3NSBaIE02OTEuODc1LDYwMi4yNSBRNjkxLjg3NSw2MDIuMjUgNjkxLjg3NSw2MDUuMDYyNSBMNjkzLjYyNSw2MDUuMDYyNSBRNjkzLjYyNSw2MDUuMDYyNSA2OTMuNjI1LDYwMi4yNSBMNjkxLjg3NSw2MDIuMjUgWiBNNjg3LjYyNSw2MDIuOTM3NSBMNjkyLjU2MjUsNjAyLjkzNzUgTDY5Mi41NjI1LDYwMS4xODc1IEw2ODcuNjI1LDYwMS4xODc1IEw2ODcuNjI1LDYwMi45Mzc1IFogIiBmaWxsPSIjMDAwMDAwIi8+PHRleHQgZmlsbD0iIzAwMDAwMCIgZm9udC1mYW1pbHk9InNhbnMtc2VyaWYiIGZvbnQtc2l6ZT0iMTQiIGxlbmd0aEFkanVzdD0ic3BhY2luZyIgdGV4dExlbmd0aD0iNDMiIHg9IjcwNCIgeT0iNjEyLjI0MjIiPlNtaWxleTwvdGV4dD48bGluZSBzdHlsZT0ic3Ryb2tlOiMxODE4MTg7c3Ryb2tlLXdpZHRoOjAuNTsiIHgxPSI2NzYiIHgyPSI3NDkiIHkxPSI2MjIuNSIgeTI9IjYyMi41Ii8+PGxpbmUgc3R5bGU9InN0cm9rZTojMTgxODE4O3N0cm9rZS13aWR0aDowLjU7IiB4MT0iNjc2IiB4Mj0iNzQ5IiB5MT0iNjMwLjUiIHkyPSI2MzAuNSIvPjwvZz48IS0tY2xhc3MgVW5kby0tPjxnIGlkPSJlbGVtX1VuZG8iPjxyZWN0IGZpbGw9IiNGMUYxRjEiIGhlaWdodD0iNDgiIGlkPSJVbmRvIiByeD0iMi41IiByeT0iMi41IiBzdHlsZT0ic3Ryb2tlOiMxODE4MTg7c3Ryb2tlLXdpZHRoOjAuNTsiIHdpZHRoPSI2MCIgeD0iNzg1LjUiIHk9IjU5MC41Ii8+PGVsbGlwc2UgY3g9IjgwMC41IiBjeT0iNjA2LjUiIGZpbGw9IiNBREQxQjIiIHJ4PSIxMSIgcnk9IjExIiBzdHlsZT0ic3Ryb2tlOiMxODE4MTg7c3Ryb2tlLXdpZHRoOjEuMDsiLz48cGF0aCBkPSJNNzk4LjEyNSw2MTAuNzUgTDc5OC4xMjUsNjEyLjUgTDgwMy4wNjI1LDYxMi41IEw4MDMuMDYyNSw2MTAuNzUgTDc5OC4xMjUsNjEwLjc1IFogTTc5OC44MTI1LDYxMS40Mzc1IFE3OTguODEyNSw2MTEuNDM3NSA3OTguODEyNSw2MDIuMjUgTDc5Ny4wNjI1LDYwMi4yNSBRNzk3LjA2MjUsNjAyLjI1IDc5Ny4wNjI1LDYxMS40Mzc1IEw3OTguODEyNSw2MTEuNDM3NSBaIE04MDIuMzc1LDYxMS40Mzc1IEw4MDQuMTI1LDYxMS40Mzc1IFE4MDQuMTI1LDYxMS40Mzc1IDgwNC4xMjUsNjA4LjYyNSBMODAyLjM3NSw2MDguNjI1IFE4MDIuMzc1LDYwOC42MjUgODAyLjM3NSw2MTEuNDM3NSBaIE04MDIuMzc1LDYwMi4yNSBRODAyLjM3NSw2MDIuMjUgODAyLjM3NSw2MDUuMDYyNSBMODA0LjEyNSw2MDUuMDYyNSBRODA0LjEyNSw2MDUuMDYyNSA4MDQuMTI1LDYwMi4yNSBMODAyLjM3NSw2MDIuMjUgWiBNNzk4LjEyNSw2MDIuOTM3NSBMODAzLjA2MjUsNjAyLjkzNzUgTDgwMy4wNjI1LDYwMS4xODc1IEw3OTguMTI1LDYwMS4xODc1IEw3OTguMTI1LDYwMi45Mzc1IFogIiBmaWxsPSIjMDAwMDAwIi8+PHRleHQgZmlsbD0iIzAwMDAwMCIgZm9udC1mYW1pbHk9InNhbnMtc2VyaWYiIGZvbnQtc2l6ZT0iMTQiIGxlbmd0aEFkanVzdD0ic3BhY2luZyIgdGV4dExlbmd0aD0iMjgiIHg9IjgxNC41IiB5PSI2MTIuMjQyMiI+VW5kbzwvdGV4dD48bGluZSBzdHlsZT0ic3Ryb2tlOiMxODE4MTg7c3Ryb2tlLXdpZHRoOjAuNTsiIHgxPSI3ODYuNSIgeDI9Ijg0NC41IiB5MT0iNjIyLjUiIHkyPSI2MjIuNSIvPjxsaW5lIHN0eWxlPSJzdHJva2U6IzE4MTgxODtzdHJva2Utd2lkdGg6MC41OyIgeDE9Ijc4Ni41IiB4Mj0iODQ0LjUiIHkxPSI2MzAuNSIgeTI9IjYzMC41Ii8+PC9nPjwhLS1jbGFzcyBUaW1lQ291bnRlci0tPjxnIGlkPSJlbGVtX1RpbWVDb3VudGVyIj48cmVjdCBmaWxsPSIjRjFGMUYxIiBoZWlnaHQ9IjQ4IiBpZD0iVGltZUNvdW50ZXIiIHJ4PSIyLjUiIHJ5PSIyLjUiIHN0eWxlPSJzdHJva2U6IzE4MTgxODtzdHJva2Utd2lkdGg6MC41OyIgd2lkdGg9IjExMCIgeD0iODgwLjUiIHk9IjU5MC41Ii8+PGVsbGlwc2UgY3g9Ijg5NS41IiBjeT0iNjA2LjUiIGZpbGw9IiNBREQxQjIiIHJ4PSIxMSIgcnk9IjExIiBzdHlsZT0ic3Ryb2tlOiMxODE4MTg7c3Ryb2tlLXdpZHRoOjEuMDsiLz48cGF0aCBkPSJNODkzLjEyNSw2MTAuNzUgTDg5My4xMjUsNjEyLjUgTDg5OC4wNjI1LDYxMi41IEw4OTguMDYyNSw2MTAuNzUgTDg5My4xMjUsNjEwLjc1IFogTTg5My44MTI1LDYxMS40Mzc1IFE4OTMuODEyNSw2MTEuNDM3NSA4OTMuODEyNSw2MDIuMjUgTDg5Mi4wNjI1LDYwMi4yNSBRODkyLjA2MjUsNjAyLjI1IDg5Mi4wNjI1LDYxMS40Mzc1IEw4OTMuODEyNSw2MTEuNDM3NSBaIE04OTcuMzc1LDYxMS40Mzc1IEw4OTkuMTI1LDYxMS40Mzc1IFE4OTkuMTI1LDYxMS40Mzc1IDg5OS4xMjUsNjA4LjYyNSBMODk3LjM3NSw2MDguNjI1IFE4OTcuMzc1LDYwOC42MjUgODk3LjM3NSw2MTEuNDM3NSBaIE04OTcuMzc1LDYwMi4yNSBRODk3LjM3NSw2MDIuMjUgODk3LjM3NSw2MDUuMDYyNSBMODk5LjEyNSw2MDUuMDYyNSBRODk5LjEyNSw2MDUuMDYyNSA4OTkuMTI1LDYwMi4yNSBMODk3LjM3NSw2MDIuMjUgWiBNODkzLjEyNSw2MDIuOTM3NSBMODk4LjA2MjUsNjAyLjkzNzUgTDg5OC4wNjI1LDYwMS4xODc1IEw4OTMuMTI1LDYwMS4xODc1IEw4OTMuMTI1LDYwMi45Mzc1IFogIiBmaWxsPSIjMDAwMDAwIi8+PHRleHQgZmlsbD0iIzAwMDAwMCIgZm9udC1mYW1pbHk9InNhbnMtc2VyaWYiIGZvbnQtc2l6ZT0iMTQiIGxlbmd0aEFkanVzdD0ic3BhY2luZyIgdGV4dExlbmd0aD0iNzgiIHg9IjkwOS41IiB5PSI2MTIuMjQyMiI+VGltZUNvdW50ZXI8L3RleHQ+PGxpbmUgc3R5bGU9InN0cm9rZTojMTgxODE4O3N0cm9rZS13aWR0aDowLjU7IiB4MT0iODgxLjUiIHgyPSI5ODkuNSIgeTE9IjYyMi41IiB5Mj0iNjIyLjUiLz48bGluZSBzdHlsZT0ic3Ryb2tlOiMxODE4MTg7c3Ryb2tlLXdpZHRoOjAuNTsiIHgxPSI4ODEuNSIgeDI9Ijk4OS41IiB5MT0iNjMwLjUiIHkyPSI2MzAuNSIvPjwvZz48IS0tY2xhc3MgQXVkaW9QbGF5ZXItLT48ZyBpZD0iZWxlbV9BdWRpb1BsYXllciI+PHJlY3QgZmlsbD0iI0YxRjFGMSIgaGVpZ2h0PSI0OCIgaWQ9IkF1ZGlvUGxheWVyIiByeD0iMi41IiByeT0iMi41IiBzdHlsZT0ic3Ryb2tlOiMxODE4MTg7c3Ryb2tlLXdpZHRoOjAuNTsiIHdpZHRoPSIxMDkiIHg9IjEzODgiIHk9IjU5MC41Ii8+PGVsbGlwc2UgY3g9IjE0MDMiIGN5PSI2MDYuNSIgZmlsbD0iI0FERDFCMiIgcng9IjExIiByeT0iMTEiIHN0eWxlPSJzdHJva2U6IzE4MTgxODtzdHJva2Utd2lkdGg6MS4wOyIvPjxwYXRoIGQ9Ik0xNDAwLjYyNSw2MTAuNzUgTDE0MDAuNjI1LDYxMi41IEwxNDA1LjU2MjUsNjEyLjUgTDE0MDUuNTYyNSw2MTAuNzUgTDE0MDAuNjI1LDYxMC43NSBaIE0xNDAxLjMxMjUsNjExLjQzNzUgUTE0MDEuMzEyNSw2MTEuNDM3NSAxNDAxLjMxMjUsNjAyLjI1IEwxMzk5LjU2MjUsNjAyLjI1IFExMzk5LjU2MjUsNjAyLjI1IDEzOTkuNTYyNSw2MTEuNDM3NSBMMTQwMS4zMTI1LDYxMS40Mzc1IFogTTE0MDQuODc1LDYxMS40Mzc1IEwxNDA2LjYyNSw2MTEuNDM3NSBRMTQwNi42MjUsNjExLjQzNzUgMTQwNi42MjUsNjA4LjYyNSBMMTQwNC44NzUsNjA4LjYyNSBRMTQwNC44NzUsNjA4LjYyNSAxNDA0Ljg3NSw2MTEuNDM3NSBaIE0xNDA0Ljg3NSw2MDIuMjUgUTE0MDQuODc1LDYwMi4yNSAxNDA0Ljg3NSw2MDUuMDYyNSBMMTQwNi42MjUsNjA1LjA2MjUgUTE0MDYuNjI1LDYwNS4wNjI1IDE0MDYuNjI1LDYwMi4yNSBMMTQwNC44NzUsNjAyLjI1IFogTTE0MDAuNjI1LDYwMi45Mzc1IEwxNDA1LjU2MjUsNjAyLjkzNzUgTDE0MDUuNTYyNSw2MDEuMTg3NSBMMTQwMC42MjUsNjAxLjE4NzUgTDE0MDAuNjI1LDYwMi45Mzc1IFogIiBmaWxsPSIjMDAwMDAwIi8+PHRleHQgZmlsbD0iIzAwMDAwMCIgZm9udC1mYW1pbHk9InNhbnMtc2VyaWYiIGZvbnQtc2l6ZT0iMTQiIGxlbmd0aEFkanVzdD0ic3BhY2luZyIgdGV4dExlbmd0aD0iNzciIHg9IjE0MTciIHk9IjYxMi4yNDIyIj5BdWRpb1BsYXllcjwvdGV4dD48bGluZSBzdHlsZT0ic3Ryb2tlOiMxODE4MTg7c3Ryb2tlLXdpZHRoOjAuNTsiIHgxPSIxMzg5IiB4Mj0iMTQ5NiIgeTE9IjYyMi41IiB5Mj0iNjIyLjUiLz48bGluZSBzdHlsZT0ic3Ryb2tlOiMxODE4MTg7c3Ryb2tlLXdpZHRoOjAuNTsiIHgxPSIxMzg5IiB4Mj0iMTQ5NiIgeTE9IjYzMC41IiB5Mj0iNjMwLjUiLz48L2c+PCEtLWNsYXNzIFRocmVhZC0tPjxnIGlkPSJlbGVtX1RocmVhZCI+PHJlY3QgZmlsbD0iI0YxRjFGMSIgaGVpZ2h0PSI0OCIgaWQ9IlRocmVhZCIgcng9IjIuNSIgcnk9IjIuNSIgc3R5bGU9InN0cm9rZTojMTgxODE4O3N0cm9rZS13aWR0aDowLjU7IiB3aWR0aD0iNzQiIHg9IjEwMjUuNSIgeT0iNTkwLjUiLz48ZWxsaXBzZSBjeD0iMTA0MC41IiBjeT0iNjA2LjUiIGZpbGw9IiNBREQxQjIiIHJ4PSIxMSIgcnk9IjExIiBzdHlsZT0ic3Ryb2tlOiMxODE4MTg7c3Ryb2tlLXdpZHRoOjEuMDsiLz48cGF0aCBkPSJNMTAzOC4xMjUsNjEwLjc1IEwxMDM4LjEyNSw2MTIuNSBMMTA0My4wNjI1LDYxMi41IEwxMDQzLjA2MjUsNjEwLjc1IEwxMDM4LjEyNSw2MTAuNzUgWiBNMTAzOC44MTI1LDYxMS40Mzc1IFExMDM4LjgxMjUsNjExLjQzNzUgMTAzOC44MTI1LDYwMi4yNSBMMTAzNy4wNjI1LDYwMi4yNSBRMTAzNy4wNjI1LDYwMi4yNSAxMDM3LjA2MjUsNjExLjQzNzUgTDEwMzguODEyNSw2MTEuNDM3NSBaIE0xMDQyLjM3NSw2MTEuNDM3NSBMMTA0NC4xMjUsNjExLjQzNzUgUTEwNDQuMTI1LDYxMS40Mzc1IDEwNDQuMTI1LDYwOC42MjUgTDEwNDIuMzc1LDYwOC42MjUgUTEwNDIuMzc1LDYwOC42MjUgMTA0Mi4zNzUsNjExLjQzNzUgWiBNMTA0Mi4zNzUsNjAyLjI1IFExMDQyLjM3NSw2MDIuMjUgMTA0Mi4zNzUsNjA1LjA2MjUgTDEwNDQuMTI1LDYwNS4wNjI1IFExMDQ0LjEyNSw2MDUuMDYyNSAxMDQ0LjEyNSw2MDIuMjUgTDEwNDIuMzc1LDYwMi4yNSBaIE0xMDM4LjEyNSw2MDIuOTM3NSBMMTA0My4wNjI1LDYwMi45Mzc1IEwxMDQzLjA2MjUsNjAxLjE4NzUgTDEwMzguMTI1LDYwMS4xODc1IEwxMDM4LjEyNSw2MDIuOTM3NSBaICIgZmlsbD0iIzAwMDAwMCIvPjx0ZXh0IGZpbGw9IiMwMDAwMDAiIGZvbnQtZmFtaWx5PSJzYW5zLXNlcmlmIiBmb250LXNpemU9IjE0IiBsZW5ndGhBZGp1c3Q9InNwYWNpbmciIHRleHRMZW5ndGg9IjQyIiB4PSIxMDU0LjUiIHk9IjYxMi4yNDIyIj5UaHJlYWQ8L3RleHQ+PGxpbmUgc3R5bGU9InN0cm9rZTojMTgxODE4O3N0cm9rZS13aWR0aDowLjU7IiB4MT0iMTAyNi41IiB4Mj0iMTA5OC41IiB5MT0iNjIyLjUiIHkyPSI2MjIuNSIvPjxsaW5lIHN0eWxlPSJzdHJva2U6IzE4MTgxODtzdHJva2Utd2lkdGg6MC41OyIgeDE9IjEwMjYuNSIgeDI9IjEwOTguNSIgeTE9IjYzMC41IiB5Mj0iNjMwLjUiLz48L2c+PCEtLWxpbmsgQ29udHJvbCB0byBHYW1lUGFuZWwtLT48ZyBpZD0ibGlua19Db250cm9sX0dhbWVQYW5lbCI+PHBhdGggY29kZUxpbmU9Ijc3IiBkPSJNNjA0LjUsODUuMjUgQzYwNC41LDEwMS44OSA2MDQuNSwxMTYuNjUgNjA0LjUsMTM4Ljg4ICIgZmlsbD0ibm9uZSIgaWQ9IkNvbnRyb2wtdG8tR2FtZVBhbmVsIiBzdHlsZT0ic3Ryb2tlOiMxODE4MTg7c3Ryb2tlLXdpZHRoOjEuMDsiLz48cG9seWdvbiBmaWxsPSIjMTgxODE4IiBwb2ludHM9IjYwNC41LDE0NC44OCw2MDguNSwxMzUuODgsNjA0LjUsMTM5Ljg4LDYwMC41LDEzNS44OCw2MDQuNSwxNDQuODgiIHN0eWxlPSJzdHJva2U6IzE4MTgxODtzdHJva2Utd2lkdGg6MS4wOyIvPjwvZz48IS0tbGluayBHYW1lUGFuZWwgdG8gTWVudS0tPjxnIGlkPSJsaW5rX0dhbWVQYW5lbF9NZW51Ij48cGF0aCBjb2RlTGluZT0iNzgiIGQ9Ik03MzQuNTEsMzc4LjEzIEM4MzguNDMsNDI0LjgxIDk4Ny42Niw0OTIuMzUgMTExNy41LDU1MyBDMTEyMyw1NTUuNTcgMTEyMy4xOTM3LDU1NS42NDk3IDExMjguODczNyw1NTguMzI5NyAiIGZpbGw9Im5vbmUiIGlkPSJHYW1lUGFuZWwtdG8tTWVudSIgc3R5bGU9InN0cm9rZTojMTgxODE4O3N0cm9rZS13aWR0aDoxLjA7Ii8+PHBvbHlnb24gZmlsbD0iIzE4MTgxOCIgcG9pbnRzPSIxMTM0LjMsNTYwLjg5LDExMjcuODY3NCw1NTMuNDMyLDExMjkuNzc4MSw1NTguNzU2NCwxMTI0LjQ1MzcsNTYwLjY2NzEsMTEzNC4zLDU2MC44OSIgc3R5bGU9InN0cm9rZTojMTgxODE4O3N0cm9rZS13aWR0aDoxLjA7Ii8+PC9nPjwhLS1saW5rIEdhbWVQYW5lbCB0byBNaW5lLS0+PGcgaWQ9ImxpbmtfR2FtZVBhbmVsX01pbmUiPjxwYXRoIGNvZGVMaW5lPSI3OSIgZD0iTTU0Mi41MSw0OTMuMjggQzUzMC4xNyw1MjcuNzggNTIwLjU3MDYsNTU0LjYxMDUgNTEyLjUzMDYsNTc3LjA5MDUgIiBmaWxsPSJub25lIiBpZD0iR2FtZVBhbmVsLXRvLU1pbmUiIHN0eWxlPSJzdHJva2U6IzE4MTgxODtzdHJva2Utd2lkdGg6MS4wOyIvPjxwb2x5Z29uIGZpbGw9IiMxODE4MTgiIHBvaW50cz0iNTEwLjUxLDU4Mi43NCw1MTcuMzA3Miw1NzUuNjEyNyw1MTIuMTkzOCw1NzguMDMyLDUwOS43NzQ1LDU3Mi45MTg2LDUxMC41MSw1ODIuNzQiIHN0eWxlPSJzdHJva2U6IzE4MTgxODtzdHJva2Utd2lkdGg6MS4wOyIvPjwvZz48IS0tbGluayBHYW1lUGFuZWwgdG8gQm9hcmQtLT48ZyBpZD0ibGlua19HYW1lUGFuZWxfQm9hcmQiPjxwYXRoIGNvZGVMaW5lPSI4MCIgZD0iTTU5MS45NCw0OTMuMjggQzU5Mi40Myw1MjcuNzggNTkzLjI0NzgsNTU0LjI5NDUgNTk1LjY2NzgsNTc2Ljc3NDUgIiBmaWxsPSJub25lIiBpZD0iR2FtZVBhbmVsLXRvLUJvYXJkIiBzdHlsZT0ic3Ryb2tlOiMxODE4MTg7c3Ryb2tlLXdpZHRoOjEuMDsiLz48cG9seWdvbiBmaWxsPSIjMTgxODE4IiBwb2ludHM9IjU5Ni4zMSw1ODIuNzQsNTk5LjMyMzcsNTczLjM2MzYsNTk1Ljc3NDgsNTc3Ljc2ODcsNTkxLjM2OTcsNTc0LjIxOTgsNTk2LjMxLDU4Mi43NCIgc3R5bGU9InN0cm9rZTojMTgxODE4O3N0cm9rZS13aWR0aDoxLjA7Ii8+PC9nPjwhLS1saW5rIEdhbWVQYW5lbCB0byBCb2FyZC0tPjxnIGlkPSJsaW5rX0dhbWVQYW5lbF9Cb2FyZCI+PHBhdGggY29kZUxpbmU9IjkwIiBkPSJNNjE3LjgsNDkzLjI4IEM2MTcuMjgsNTI3Ljc4IDYxNi40MjE1LDU1NC4yOTg4IDYxMy44NTE1LDU3Ni43Nzg4ICIgZmlsbD0ibm9uZSIgaWQ9IkdhbWVQYW5lbC10by1Cb2FyZC0xIiBzdHlsZT0ic3Ryb2tlOiMxODE4MTg7c3Ryb2tlLXdpZHRoOjEuMDsiLz48cG9seWdvbiBmaWxsPSIjMTgxODE4IiBwb2ludHM9IjYxMy4xNyw1ODIuNzQsNjE4LjE2NjQsNTc0LjI1MjYsNjEzLjczNzksNTc3Ljc3MjQsNjEwLjIxODEsNTczLjM0MzksNjEzLjE3LDU4Mi43NCIgc3R5bGU9InN0cm9rZTojMTgxODE4O3N0cm9rZS13aWR0aDoxLjA7Ii8+PC9nPjwhLS1saW5rIEdhbWVQYW5lbCB0byBGbGFnZ2VyLS0+PGcgaWQ9ImxpbmtfR2FtZVBhbmVsX0ZsYWdnZXIiPjxwYXRoIGNvZGVMaW5lPSI4MSIgZD0iTTQ3NC4yOCw0NDAuNSBDNDQ3LjY5LDQ2MC40MyA0MTguODMsNDc5LjA5IDM4OS41LDQ5MyBDMjcyLjk0LDU0OC4yOSAyMTguMjYsNDkwLjMyIDEwNS41LDU1MyBDOTIuMTUsNTYwLjQyIDgzLjk1ODQsNTY3LjQyOTggNzQuMjU4NCw1NzguNDI5OCAiIGZpbGw9Im5vbmUiIGlkPSJHYW1lUGFuZWwtdG8tRmxhZ2dlciIgc3R5bGU9InN0cm9rZTojMTgxODE4O3N0cm9rZS13aWR0aDoxLjA7Ii8+PHBvbHlnb24gZmlsbD0iIzE4MTgxOCIgcG9pbnRzPSI3MC4yOSw1ODIuOTMsNzkuMjQyNyw1NzguODI1Myw3My41OTcsNTc5LjE3OTgsNzMuMjQyNCw1NzMuNTM0MSw3MC4yOSw1ODIuOTMiIHN0eWxlPSJzdHJva2U6IzE4MTgxODtzdHJva2Utd2lkdGg6MS4wOyIvPjwvZz48IS0tbGluayBHYW1lUGFuZWwgdG8gU21pbGV5LS0+PGcgaWQ9ImxpbmtfR2FtZVBhbmVsX1NtaWxleSI+PHBhdGggY29kZUxpbmU9IjgyIiBkPSJNNjY4LjI2LDQ5My4yOCBDNjgyLjQyLDUzMS43NSA2OTMuNTc2OSw1NjIuMDc5NSA3MDEuODE2OSw1ODQuNDU5NSAiIGZpbGw9Im5vbmUiIGlkPSJHYW1lUGFuZWwtdG8tU21pbGV5IiBzdHlsZT0ic3Ryb2tlOiMxODE4MTg7c3Ryb2tlLXdpZHRoOjEuMDsiLz48cG9seWdvbiBmaWxsPSIjMTgxODE4IiBwb2ludHM9IjcwMy44OSw1OTAuMDksNzA0LjUzNDEsNTgwLjI2MjIsNzAyLjE2MjQsNTg1LjM5NzksNjk3LjAyNjcsNTgzLjAyNjMsNzAzLjg5LDU5MC4wOSIgc3R5bGU9InN0cm9rZTojMTgxODE4O3N0cm9rZS13aWR0aDoxLjA7Ii8+PC9nPjwhLS1saW5rIEdhbWVQYW5lbCB0byBVbmRvLS0+PGcgaWQ9ImxpbmtfR2FtZVBhbmVsX1VuZG8iPjxwYXRoIGNvZGVMaW5lPSI4MyIgZD0iTTcyOS4wNyw0OTMuMjggQzc1Ni43Myw1MzEuNzUgNzc5LjA3NzYsNTYyLjgzODQgNzk1LjE2NzYsNTg1LjIxODQgIiBmaWxsPSJub25lIiBpZD0iR2FtZVBhbmVsLXRvLVVuZG8iIHN0eWxlPSJzdHJva2U6IzE4MTgxODtzdHJva2Utd2lkdGg6MS4wOyIvPjxwb2x5Z29uIGZpbGw9IiMxODE4MTgiIHBvaW50cz0iNzk4LjY3LDU5MC4wOSw3OTYuNjY0MSw1ODAuNDQ3Niw3OTUuNzUxMyw1ODYuMDMwMyw3OTAuMTY4Niw1ODUuMTE3NSw3OTguNjcsNTkwLjA5IiBzdHlsZT0ic3Ryb2tlOiMxODE4MTg7c3Ryb2tlLXdpZHRoOjEuMDsiLz48L2c+PCEtLWxpbmsgR2FtZVBhbmVsIHRvIExldmVsLS0+PGcgaWQ9ImxpbmtfR2FtZVBhbmVsX0xldmVsIj48cGF0aCBjb2RlTGluZT0iODQiIGQ9Ik00NzQuMzYsNDM2LjY4IEM0NDcuNDksNDU3LjI2IDQxOC41LDQ3Ny4xNCAzODkuNSw0OTMgQzMxNS44OSw1MzMuMjYgMjgwLjEyLDUwNi4xNyAyMTAuNSw1NTMgQzE5OC43OCw1NjAuODggMTkxLjkwMDUsNTY3LjQxNDcgMTgzLjM1MDUsNTc4LjA0NDcgIiBmaWxsPSJub25lIiBpZD0iR2FtZVBhbmVsLXRvLUxldmVsIiBzdHlsZT0ic3Ryb2tlOiMxODE4MTg7c3Ryb2tlLXdpZHRoOjEuMDsiLz48cG9seWdvbiBmaWxsPSIjMTgxODE4IiBwb2ludHM9IjE3OS41OSw1ODIuNzIsMTg4LjM0NzYsNTc4LjIxNCwxODIuNzIzNyw1NzguODIzOSwxODIuMTEzOSw1NzMuMiwxNzkuNTksNTgyLjcyIiBzdHlsZT0ic3Ryb2tlOiMxODE4MTg7c3Ryb2tlLXdpZHRoOjEuMDsiLz48L2c+PCEtLWxpbmsgR2FtZVBhbmVsIHRvIFRpbWVDb3VudGVyLS0+PGcgaWQ9ImxpbmtfR2FtZVBhbmVsX1RpbWVDb3VudGVyIj48cGF0aCBjb2RlTGluZT0iODUiIGQ9Ik03MzQuODQsNDM1LjU4IEM3OTkuNjEsNDkzLjAxIDg2Ny40MjA5LDU1My4xMjkxIDkwNS4wNTA5LDU4Ni40OTkxICIgZmlsbD0ibm9uZSIgaWQ9IkdhbWVQYW5lbC10by1UaW1lQ291bnRlciIgc3R5bGU9InN0cm9rZTojMTgxODE4O3N0cm9rZS13aWR0aDoxLjA7Ii8+PHBvbHlnb24gZmlsbD0iIzE4MTgxOCIgcG9pbnRzPSI5MDkuNTQsNTkwLjQ4LDkwNS40NjAzLDU4MS41MTU5LDkwNS43OTkxLDU4Ny4xNjI2LDkwMC4xNTI0LDU4Ny41MDE0LDkwOS41NCw1OTAuNDgiIHN0eWxlPSJzdHJva2U6IzE4MTgxODtzdHJva2Utd2lkdGg6MS4wOyIvPjwvZz48IS0tbGluayBHYW1lUGFuZWwgdG8gR2FtZVN0YXRlLS0+PGcgaWQ9ImxpbmtfR2FtZVBhbmVsX0dhbWVTdGF0ZSI+PHBhdGggY29kZUxpbmU9Ijg2IiBkPSJNNDc0LjE4LDQzNC4zMyBDNDMxLjY4LDQ3MS45MSAzODQuNCw1MTQuMDQgMzQxLjUsNTUzIEMzMzAuODksNTYyLjY0IDMyMy44MDEsNTY5LjE3MTEgMzEzLjQ4MSw1NzguNzgxMSAiIGZpbGw9Im5vbmUiIGlkPSJHYW1lUGFuZWwtdG8tR2FtZVN0YXRlIiBzdHlsZT0ic3Ryb2tlOiMxODE4MTg7c3Ryb2tlLXdpZHRoOjEuMDsiLz48cG9seWdvbiBmaWxsPSIjMTgxODE4IiBwb2ludHM9IjMwOS4wOSw1ODIuODcsMzE4LjQwMjQsNTc5LjY2NCwzMTIuNzQ5Miw1NzkuNDYyNiwzMTIuOTUwNiw1NzMuODA5MywzMDkuMDksNTgyLjg3IiBzdHlsZT0ic3Ryb2tlOiMxODE4MTg7c3Ryb2tlLXdpZHRoOjEuMDsiLz48L2c+PCEtLWxpbmsgR2FtZVBhbmVsIHRvIExpZmUtLT48ZyBpZD0ibGlua19HYW1lUGFuZWxfTGlmZSI+PHBhdGggY29kZUxpbmU9Ijg3IiBkPSJNNDgwLjUyLDQ5My4yOCBDNDU1LjgzLDUyNy43OCA0MzYuMDkyMSw1NTUuMzgxIDQyMC4wMDIxLDU3Ny44NjEgIiBmaWxsPSJub25lIiBpZD0iR2FtZVBhbmVsLXRvLUxpZmUiIHN0eWxlPSJzdHJva2U6IzE4MTgxODtzdHJva2Utd2lkdGg6MS4wOyIvPjxwb2x5Z29uIGZpbGw9IiMxODE4MTgiIHBvaW50cz0iNDE2LjUxLDU4Mi43NCw0MjUuMDAwOSw1NzcuNzQ5Niw0MTkuNDIwMSw1NzguNjc0MSw0MTguNDk1NSw1NzMuMDkzNCw0MTYuNTEsNTgyLjc0IiBzdHlsZT0ic3Ryb2tlOiMxODE4MTg7c3Ryb2tlLXdpZHRoOjEuMDsiLz48L2c+PCEtLWxpbmsgR2FtZVBhbmVsIHRvIEF1ZGlvUGxheWVyLS0+PGcgaWQ9ImxpbmtfR2FtZVBhbmVsX0F1ZGlvUGxheWVyIj48cGF0aCBjb2RlTGluZT0iODgiIGQ9Ik03MzQuNzQsMzQyLjkzIEM4OTIuMzYsMzc0LjM1IDExNjIuNDksNDQwLjE2IDEzNzAuNSw1NTMgQzEzODguNzMsNTYyLjg5IDE0MDIuMjIwMiw1NzMuNzM4NCAxNDE1LjU5MDIsNTg2LjMxODQgIiBmaWxsPSJub25lIiBpZD0iR2FtZVBhbmVsLXRvLUF1ZGlvUGxheWVyIiBzdHlsZT0ic3Ryb2tlOiMxODE4MTg7c3Ryb2tlLXdpZHRoOjEuMDsiLz48cG9seWdvbiBmaWxsPSIjMTgxODE4IiBwb2ludHM9IjE0MTkuOTYsNTkwLjQzLDE0MTYuMTQ2NCw1ODEuMzQ5NSwxNDE2LjMxODUsNTg3LjAwMzcsMTQxMC42NjQzLDU4Ny4xNzU4LDE0MTkuOTYsNTkwLjQzIiBzdHlsZT0ic3Ryb2tlOiMxODE4MTg7c3Ryb2tlLXdpZHRoOjEuMDsiLz48L2c+PCEtLWxpbmsgR2FtZVBhbmVsIHRvIFRocmVhZC0tPjxnIGlkPSJsaW5rX0dhbWVQYW5lbF9UaHJlYWQiPjxwYXRoIGNvZGVMaW5lPSI4OSIgZD0iTTczNC45NSwzODEuNjggQzgxNy41Nyw0MjMuOTMgOTI0LjMxLDQ4NC41NiAxMDA4LjUsNTUzIEMxMDIxLjk0LDU2My45MiAxMDMxLjExODYsNTczLjY4NjEgMTA0MC45ODg2LDU4NS42ODYxICIgZmlsbD0ibm9uZSIgaWQ9IkdhbWVQYW5lbC10by1UaHJlYWQiIHN0eWxlPSJzdHJva2U6IzE4MTgxODtzdHJva2Utd2lkdGg6MS4wOyIvPjxwb2x5Z29uIGZpbGw9IiMxODE4MTgiIHBvaW50cz0iMTA0NC44LDU5MC4zMiwxMDQyLjE3MjIsNTgwLjgyODIsMTA0MS42MjM4LDU4Ni40NTg0LDEwMzUuOTkzNiw1ODUuOTEwMSwxMDQ0LjgsNTkwLjMyIiBzdHlsZT0ic3Ryb2tlOiMxODE4MTg7c3Ryb2tlLXdpZHRoOjEuMDsiLz48L2c+PCEtLWxpbmsgTWVudSB0byBMYXlvdXQtLT48ZyBpZD0ibGlua19NZW51X0xheW91dCI+PHBhdGggY29kZUxpbmU9IjkxIiBkPSJNMTI0My41LDY3Ni4xOCBDMTI0My41LDY5NS42MyAxMjQzLjUsNzExIDEyNDMuNSw3MjkuODYgIiBmaWxsPSJub25lIiBpZD0iTWVudS10by1MYXlvdXQiIHN0eWxlPSJzdHJva2U6IzE4MTgxODtzdHJva2Utd2lkdGg6MS4wOyIvPjxwb2x5Z29uIGZpbGw9IiMxODE4MTgiIHBvaW50cz0iMTI0My41LDczNS44NiwxMjQ3LjUsNzI2Ljg2LDEyNDMuNSw3MzAuODYsMTIzOS41LDcyNi44NiwxMjQzLjUsNzM1Ljg2IiBzdHlsZT0ic3Ryb2tlOiMxODE4MTg7c3Ryb2tlLXdpZHRoOjEuMDsiLz48L2c+PCEtLXJldmVyc2UgbGluayBFbnRpdHkgdG8gTWluZS0tPjxnIGlkPSJsaW5rX0VudGl0eV9NaW5lIj48cGF0aCBjb2RlTGluZT0iOTIiIGQ9Ik0zNjEuMzY5NCwzNjYuMjkzOCBDMzkyLjg2OTQsNDIyLjY3MzggNDUwLjk4LDUyNi42NiA0ODIuNDUsNTgyLjk5ICIgZmlsbD0ibm9uZSIgaWQ9IkVudGl0eS1iYWNrdG8tTWluZSIgc3R5bGU9InN0cm9rZTojMTgxODE4O3N0cm9rZS13aWR0aDoxLjA7Ii8+PHBvbHlnb24gZmlsbD0ibm9uZSIgcG9pbnRzPSIzNTIuNTksMzUwLjU4LDM1Ni4xMzE1LDM2OS4yMjAyLDM2Ni42MDczLDM2My4zNjczLDM1Mi41OSwzNTAuNTgiIHN0eWxlPSJzdHJva2U6IzE4MTgxODtzdHJva2Utd2lkdGg6MS4wOyIvPjwvZz48IS0tcmV2ZXJzZSBsaW5rIEVudGl0eSB0byBGbGFnZ2VyLS0+PGcgaWQ9ImxpbmtfRW50aXR5X0ZsYWdnZXIiPjxwYXRoIGNvZGVMaW5lPSI5MyIgZD0iTTI5Mi4xNTUxLDM2My41MjA5IEMyNDcuOTM1MSw0MDcuOTcwOSAxNzYuNDQsNDgwLjA3IDEwNS41LDU1MyBDOTYuMDYsNTYyLjcgODUuODMsNTczLjM0IDc2LjYyLDU4Mi45NSAiIGZpbGw9Im5vbmUiIGlkPSJFbnRpdHktYmFja3RvLUZsYWdnZXIiIHN0eWxlPSJzdHJva2U6IzE4MTgxODtzdHJva2Utd2lkdGg6MS4wOyIvPjxwb2x5Z29uIGZpbGw9Im5vbmUiIHBvaW50cz0iMzA0Ljg1LDM1MC43NiwyODcuOTAxNSwzNTkuMjg5MywyOTYuNDA4OCwzNjcuNzUyNSwzMDQuODUsMzUwLjc2IiBzdHlsZT0ic3Ryb2tlOiMxODE4MTg7c3Ryb2tlLXdpZHRoOjEuMDsiLz48L2c+PCEtLXJldmVyc2UgbGluayBFbnRpdHkgdG8gTGV2ZWwtLT48ZyBpZD0ibGlua19FbnRpdHlfTGV2ZWwiPjxwYXRoIGNvZGVMaW5lPSI5NCIgZD0iTTMwNy43NjQ1LDM2NS45OTQxIEMyNzMuNzY0NSw0MjIuMzc0MSAyMTAuODcsNTI2LjY2IDE3Ni45LDU4Mi45OSAiIGZpbGw9Im5vbmUiIGlkPSJFbnRpdHktYmFja3RvLUxldmVsIiBzdHlsZT0ic3Ryb2tlOiMxODE4MTg7c3Ryb2tlLXdpZHRoOjEuMDsiLz48cG9seWdvbiBmaWxsPSJub25lIiBwb2ludHM9IjMxNy4wNiwzNTAuNTgsMzAyLjYyNjUsMzYyLjg5NTYsMzEyLjkwMjYsMzY5LjA5MjYsMzE3LjA2LDM1MC41OCIgc3R5bGU9InN0cm9rZTojMTgxODE4O3N0cm9rZS13aWR0aDoxLjA7Ii8+PC9nPjwhLS1yZXZlcnNlIGxpbmsgRW50aXR5IHRvIEdhbWVTdGF0ZS0tPjxnIGlkPSJsaW5rX0VudGl0eV9HYW1lU3RhdGUiPjxwYXRoIGNvZGVMaW5lPSI5NSIgZD0iTTMyNS44MDM3LDM2OC4yMjcyIEMzMTQuNDczNyw0MjQuNjA3MiAyOTMuOTYsNTI2LjY2IDI4Mi42Myw1ODIuOTkgIiBmaWxsPSJub25lIiBpZD0iRW50aXR5LWJhY2t0by1HYW1lU3RhdGUiIHN0eWxlPSJzdHJva2U6IzE4MTgxODtzdHJva2Utd2lkdGg6MS4wOyIvPjxwb2x5Z29uIGZpbGw9Im5vbmUiIHBvaW50cz0iMzI5LjM1LDM1MC41OCwzMTkuOTIxMywzNjcuMDQ1MSwzMzEuNjg2MSwzNjkuNDA5MywzMjkuMzUsMzUwLjU4IiBzdHlsZT0ic3Ryb2tlOiMxODE4MTg7c3Ryb2tlLXdpZHRoOjEuMDsiLz48L2c+PCEtLXJldmVyc2UgbGluayBFbnRpdHkgdG8gTGlmZS0tPjxnIGlkPSJsaW5rX0VudGl0eV9MaWZlIj48cGF0aCBjb2RlTGluZT0iOTYiIGQ9Ik0zNDUuMTk2MywzNjguMjI3MiBDMzU2LjUyNjMsNDI0LjYwNzIgMzc3LjA0LDUyNi42NiAzODguMzcsNTgyLjk5ICIgZmlsbD0ibm9uZSIgaWQ9IkVudGl0eS1iYWNrdG8tTGlmZSIgc3R5bGU9InN0cm9rZTojMTgxODE4O3N0cm9rZS13aWR0aDoxLjA7Ii8+PHBvbHlnb24gZmlsbD0ibm9uZSIgcG9pbnRzPSIzNDEuNjUsMzUwLjU4LDMzOS4zMTM5LDM2OS40MDkzLDM1MS4wNzg3LDM2Ny4wNDUxLDM0MS42NSwzNTAuNTgiIHN0eWxlPSJzdHJva2U6IzE4MTgxODtzdHJva2Utd2lkdGg6MS4wOyIvPjwvZz48IS0tcmV2ZXJzZSBsaW5rIEVudGl0eSB0byBCb2FyZC0tPjxnIGlkPSJsaW5rX0VudGl0eV9Cb2FyZCI+PHBhdGggY29kZUxpbmU9Ijk3IiBkPSJNMzYwLjY3OTIsMzY2LjI1MDIgQzM4MS40NjkyLDQwMy4xMzAyIDQxMS4yOSw0NDkuODYgNDU2LjUsNDkzIEM0OTIuNjMsNTI3LjQ3IDUxMy41NCw1MjAuNTUgNTUxLjUsNTUzIEM1NjEuOSw1NjEuODkgNTcyLjExLDU3Mi44NCA1ODAuNzQsNTgyLjk3ICIgZmlsbD0ibm9uZSIgaWQ9IkVudGl0eS1iYWNrdG8tQm9hcmQiIHN0eWxlPSJzdHJva2U6IzE4MTgxODtzdHJva2Utd2lkdGg6MS4wOyIvPjxwb2x5Z29uIGZpbGw9Im5vbmUiIHBvaW50cz0iMzUxLjg0LDM1MC41NywzNTUuNDUyNSwzNjkuMTk2NiwzNjUuOTA2LDM2My4zMDM4LDM1MS44NCwzNTAuNTciIHN0eWxlPSJzdHJva2U6IzE4MTgxODtzdHJva2Utd2lkdGg6MS4wOyIvPjwvZz48IS0tbGluayBGZWF0dXJlcyB0byBBdWRpb1BsYXllci0tPjxnIGlkPSJsaW5rX0ZlYXR1cmVzX0F1ZGlvUGxheWVyIj48cGF0aCBjb2RlTGluZT0iOTgiIGQ9Ik0xNDQyLjUsMzU4LjA3IEMxNDQyLjUsNDE5LjggMTQ0Mi41LDUzMy45MSAxNDQyLjUsNTg0LjMzICIgZmlsbD0ibm9uZSIgaWQ9IkZlYXR1cmVzLXRvLUF1ZGlvUGxheWVyIiBzdHlsZT0ic3Ryb2tlOiMxODE4MTg7c3Ryb2tlLXdpZHRoOjEuMDsiLz48cG9seWdvbiBmaWxsPSIjMTgxODE4IiBwb2ludHM9IjE0NDIuNSw1OTAuMzMsMTQ0Ni41LDU4MS4zMywxNDQyLjUsNTg1LjMzLDE0MzguNSw1ODEuMzMsMTQ0Mi41LDU5MC4zMyIgc3R5bGU9InN0cm9rZTojMTgxODE4O3N0cm9rZS13aWR0aDoxLjA7Ii8+PC9nPjwhLS1TUkM9W2RMSjFaamlXNEJ0ZEFwV3dZbG0zQThncUpSRjlJamFnS2JCamlNQmpZSFNMV3VLWExUSnN0blM2bnExUXhzNGx1N2QzMzYtNlVRdTR3dGtvTGo5ZTlTWmw2STRid1BXNEdTY01qTjNtZG12U2VGTWV0TEJDUHR6ZGltaFpuWUQzdkU3WHNzUl91LU5md3NiNzJQU2MwTlVSZi10azVENE1mQU5hc1F0MXYxQVN3TE9xTm5OSkRJTFZfOFIwTVIyYzBLdDlPX1gwaTYtdlcyaWJIem1IaWg5TWI3bnRBdmUyQmh3S2xUeUdDQm81alJCSS01b2RRQTJwU1VLUzNKQ0dZaVZGYThRVjdSUHRRc1lHTzVTVl9zMWhoV3ZlWkY2ZERtdENLR3l4bWhNeEhsUFNvTGxyWXpZdXVrbnhJY0R4di1ZdE5VdGtCa1FLTjFJbDRVZ08ycndoamJDSWYyYVE1d0RQenlRaEZadEw2d1JEVGtJSFBUMU1abFJ1WEZ1NXlGS01mMDdaQklwUjd0bkxJVzJKS3VIZ3BOdkRxTVlMeFU1UE5RMGtfQkR3UXREbmpFVkhrblF5LWxjbHRuN1pfYTdFaDBBb1ByVGJwSzNsQ25HY0JsY091allSWkpKU044VlAzYm9JbmhiUEhUVG82U3dqTGo0dkpFY2E3bVRvcVppRXR0SXk2eUw5OXdmY2NYZW1PcE5xR3JkdjMyem1qZXpBRGtjYXQ3dUZQUmJBX1dmSF8xdjc5VHoxTmlxdjUwSVRPcFQ1di1ZV3dIbjROVVRHYTdRRWZSaEVGTDdNVHJjeWo3Q2VSU25ULVkzal9yTTZRaUE0T0xnNjJMaC1BU2xHWlhJdTVQdlllUG1LWVBJcFN2dm0yZUp4bnlVemctMFRdLS0+PC9nPjwvc3ZnPg==;" vertex="1" parent="WIyWlLk6GJQsqaUBKTNV-1">
            <mxGeometry x="-100" y="-100" width="1519" height="850" as="geometry" />
          </mxCell>
        </UserObject>
      </root>
    </mxGraphModel>
  </diagram>
</mxfile>
